<?xml version="1.0" encoding="UTF-8" standalone="no"?>
<svg
   xmlns:dc="http://purl.org/dc/elements/1.1/"
   xmlns:cc="http://creativecommons.org/ns#"
   xmlns:rdf="http://www.w3.org/1999/02/22-rdf-syntax-ns#"
   xmlns:svg="http://www.w3.org/2000/svg"
   xmlns="http://www.w3.org/2000/svg"
   viewBox="0 0 595.27557 841.88977"
   id="svg2"
   height="841.88977"
   width="595.27557"
   version="1.1">
  <metadata
     id="metadata30">
    <rdf:RDF>
      <cc:Work
         rdf:about="">
        <dc:format>image/svg+xml</dc:format>
        <dc:type
           rdf:resource="http://purl.org/dc/dcmitype/StillImage" />
      </cc:Work>
    </rdf:RDF>
  </metadata>
  <defs
     id="defs28" />
  <g
     id="g4">
    <path
       id="path6"
       style="fill:#3a3a3a;fill-rule:evenodd"
       d="m 283.5232,179.5615 c -0.1744,-0.1743 -0.3497,-0.247 -0.5966,-0.247 -2.7967,0 -5.593,0 -8.3898,0 -0.3756,0 -0.5636,0.4543 -0.2978,0.7199 3.223,3.2237 6.4465,6.4475 9.6698,9.6712 0.3294,0.3295 0.3294,0.8635 0,1.1929 -3.5871,3.5874 -7.1746,7.1753 -10.7617,10.7628 -0.2656,0.2657 -0.0776,0.7199 0.2984,0.7199 2.7965,0 5.5931,0 8.3898,0 0.2466,0 0.4221,-0.0726 0.5964,-0.247 2.1185,-2.1189 4.2369,-4.2379 6.3555,-6.3566 0.3296,-0.3293 0.8636,-0.3294 1.193,0 2.1187,2.1187 4.2372,4.2377 6.3559,6.3566 0.1744,0.1744 0.3494,0.247 0.5962,0.247 2.7965,0 5.5931,0 8.3899,0 0.3757,0 0.564,-0.4542 0.2978,-0.7199 -7.3659,-7.3665 -14.7312,-14.7332 -22.0968,-22.0998 z" />
    <path
       id="path8"
       style="fill:#3a3a3a;fill-rule:evenodd"
       d="m 192.1069,201.6613 c -0.2658,0.2657 -0.0776,0.7202 0.2983,0.7199 3.2134,0 6.4272,0 9.6407,0 0.3701,0 0.6329,-0.1091 0.8947,-0.3707 0.9025,-0.9025 1.8051,-1.8051 2.7074,-2.7078 0.2618,-0.2617 0.5245,-0.3708 0.8945,-0.3708 3.0427,0 6.0854,0 9.128,0 0.5625,0 1.0569,-0.371 1.2144,-0.9105 0.2714,-0.9286 0.5423,-1.8575 0.8136,-2.7858 0.1574,-0.5399 -0.2473,-1.0801 -0.8098,-1.0801 -1.692,0 -3.3842,0 -5.0763,0 -0.3758,0 -0.564,-0.4541 -0.2985,-0.72 2.2953,-2.2954 4.5906,-4.591 6.8856,-6.8869 0.7143,-0.7074 1.9287,-0.3398 2.1304,0.6453 0.9668,4.7251 1.9334,9.4504 2.9002,14.1755 0.1202,0.5892 0.6383,1.0118 1.2394,1.0118 1.8265,0 3.6528,0 5.4796,0 0.8003,0 1.4,-0.7342 1.2394,-1.5189 -1.4005,-6.8453 -2.8011,-13.6907 -4.2018,-20.5362 -0.1203,-0.589 -0.6381,-1.0116 -1.2393,-1.0116 -3.2409,0 -6.4816,0 -9.7225,0 -1.1364,0 -2.2262,0.4513 -3.0299,1.255 -7.0293,7.0306 -14.0586,14.061 -21.0881,21.0918 z" />
    <path
       id="path10"
       style="fill:#3a3a3a;fill-rule:evenodd"
       d="m 249.1125,179.3145 c 1.7508,0 3.17,1.4193 3.17,3.1705 0,-1.7512 1.4193,-3.1705 3.1701,-3.1705 3.5358,0 7.0714,0 10.6072,0 2.3671,0 4.2858,1.9189 4.2858,4.2858 0,5.8384 0,11.6771 0,17.5156 0,0.6989 -0.5666,1.2653 -1.2653,1.2653 l -5.1443,0 -0.2687,0 -0.2684,0 c -0.6961,0 -1.2655,-0.5694 -1.2655,-1.2653 l 0,-1.8024 0,-9.7627 c 0,-1.5854 -1.2855,-2.8708 -2.8708,-2.8708 -1.5851,0 -2.8707,1.2854 -2.8707,2.8708 l -0.0105,0 0,9.7627 0,1.8024 c 0,0.6959 -0.5696,1.2653 -1.2654,1.2653 l -0.2686,0 -0.2686,0 -2.2963,0 -2.2962,0 -0.2686,0 -0.2686,0 c -0.6958,0 -1.2653,-0.5694 -1.2653,-1.2653 l 0,-1.8024 0,-9.7627 -0.0106,0 c 0,-1.5854 -1.2856,-2.8708 -2.8708,-2.8708 -1.5851,0 -2.8707,1.2854 -2.8707,2.8708 l 0,9.7627 0,1.8024 c 0,0.6959 -0.5695,1.2653 -1.2653,1.2653 l -0.2686,0 -0.2686,0 -5.1444,0 c -0.6987,0 -1.2653,-0.5664 -1.2653,-1.2653 0,-5.8385 0,-11.6772 0,-17.5156 0,-2.3669 1.9188,-4.2858 4.2859,-4.2858 3.5357,0 7.0715,0 10.6071,0 z" />
    <path
       id="path12"
       style="fill:#3a3a3a;fill-rule:evenodd"
       d="m 290.6068,184.1996 c 1.6261,1.6266 3.2524,3.2528 4.8783,4.8792 3.1458,-3.1458 5.8984,-5.8987 9.0439,-9.0444 0.2655,-0.2656 0.0772,-0.7199 -0.2984,-0.7199 -2.7966,0 -5.5931,0 -8.3898,0 -0.2469,0 -0.4221,0.0727 -0.5965,0.247 -1.6765,1.6771 -2.9608,2.9611 -4.6375,4.6381 z" />
    <path
       id="path14"
       style="fill:#3a3a3a;fill-rule:evenodd"
       d="m 335.6154,187.4106 c 0,0 -18.9216,0 -18.9216,0 0,0 0,0.9199 0,0.9199 0,0 -4.4529,0 -4.4529,0 l 0,-7e-4 0,-0.002 0,-0.003 0,-0.005 0,-0.006 0,-0.007 0,-0.007 0,-0.009 0,-0.01 0,-0.0106 0,-0.0126 0,-0.0127 0,-0.0126 0,-0.0149 0,-0.0154 0,-0.0156 0,-0.017 0,-0.0169 0,-0.0174 0,-0.0184 0,-0.0191 0,-0.0191 0,-0.0189 0,-0.0203 0,-0.0206 0,-0.0211 0,-0.0205 0,-0.0211 0,-0.0212 0,-0.0217 0,-0.0212 0,-0.0218 0,-0.0212 0,-0.021 0,-0.0219 0,-0.021 0,-0.0212 0,-0.0212 0,-0.0211 0,-0.0204 0,-0.0197 0,-0.0199 0,-0.0189 0,-0.019 0,-0.0184 0,-0.0175 0,-0.0169 0,-0.017 0,-0.0154 0,-0.0149 0,-0.0148 0,-0.0132 0,-0.0128 0,-0.0119 0,-0.0106 0,-0.01 0,-0.009 0,-0.008 0,-0.007 0,-0.005 0,-0.005 0,-0.004 0,-0.001 0,-0.001 0,-7e-4 0,-0.004 0,-0.006 0,-0.009 0,-0.0105 0,-0.0126 0,-0.0149 0,-0.017 0,-0.0189 0,-0.0212 0,-0.0211 0,-0.0247 0,-0.026 0,-0.0275 0,-0.0281 0,-0.0296 0,-0.0317 0,-0.0324 0,-0.0338 0,-0.0346 0,-0.0359 0,-0.0366 0,-0.0366 0,-0.0388 0,-0.0387 0,-0.0387 0,-0.0395 0,-0.0402 0,-0.04 0,-0.0417 0,-0.0402 0,-0.0415 0,-0.0401 0,-0.0416 0,-0.0402 0,-0.0407 0,-0.0402 0,-0.0394 0,-0.0394 0,-0.0389 0,-0.0373 0,-0.0372 0,-0.0368 0,-0.0359 0,-0.0344 0,-0.0338 0,-0.0323 0,-0.0319 0,-0.0296 0,-0.0287 0,-0.0276 0,-0.0254 0,-0.0238 0,-0.0233 0,-0.0198 0,-0.019 0,-0.0175 0,-0.0143 0,-0.0132 0,-0.0106 0,-0.008 0,-0.006 0,-0.004 0,-0.001 c 0,0 2.2236,0 2.2236,0 l -1.3226,-2.2636 4.4491,0 1.3271,2.2636 c 0,0 5.5772,0 5.5772,0 l -1.3265,-2.2636 4.4487,0 1.3261,2.2636 c 0,0 3.9896,0 3.9896,0 0,0 0.4696,0 0.4696,0 l 1.3172,-2.2636 4.4527,0 -1.3204,2.2636 c 0,0 2.2469,0 2.2469,0 l 0,0.001 0,0.004 0,0.006 0,0.008 0,0.0106 0,0.0132 0,0.0143 0,0.0175 0,0.019 0,0.0198 0,0.0233 0,0.0238 0,0.0254 0,0.0276 0,0.0287 0,0.0296 0,0.0319 0,0.0323 0,0.0338 0,0.0344 0,0.0359 0,0.0368 0,0.0372 0,0.0373 0,0.0389 0,0.0394 0,0.0394 0,0.0402 0,0.0407 0,0.0402 0,0.0416 0,0.0401 0,0.0415 0,0.0402 0,0.0417 0,0.04 0,0.0402 0,0.0395 0,0.0387 0,0.0387 0,0.0388 0,0.0366 0,0.0366 0,0.0359 0,0.0346 0,0.0338 0,0.0324 0,0.0317 0,0.0296 0,0.0281 0,0.0275 0,0.026 0,0.0247 0,0.0211 0,0.0212 0,0.0189 0,0.017 0,0.0149 0,0.0126 0,0.0105 0,0.009 0,0.006 0,0.004 0,7e-4 0,0.001 0,0.001 0,0.004 0,0.005 0,0.005 0,0.007 0,0.008 0,0.009 0,0.01 0,0.0106 0,0.0119 0,0.0128 0,0.0132 0,0.0148 0,0.0149 0,0.0154 0,0.017 0,0.0169 0,0.0175 0,0.0184 0,0.019 0,0.0189 0,0.0199 0,0.0197 0,0.0204 0,0.0211 0,0.0212 0,0.0212 0,0.021 0,0.0219 0,0.021 0,0.0212 0,0.0218 0,0.0212 0,0.0217 0,0.0212 0,0.0211 0,0.0205 0,0.0211 0,0.0206 0,0.0203 0,0.0189 0,0.0191 0,0.0191 0,0.0184 0,0.0174 0,0.0169 0,0.017 0,0.0156 0,0.0154 0,0.0149 0,0.0126 0,0.0127 0,0.0126 0,0.0106 0,0.01 0,0.009 0,0.007 0,0.007 0,0.006 0,0.005 0,0.003 0,0.002 0,7e-4 c 0,0 -4.4838,0 -4.4838,0 0,0 0,-0.9199 0,-0.9199 z" />
    <path
       id="path16"
       style="fill:#3a3a3a;fill-rule:evenodd"
       d="m 387.6621,196.9795 c 0,0 11.3665,0 11.3665,0 0,0 0,1.3104 0,1.3104 0,0.937 -1.0927,1.834 -1.861,1.8382 0,0 -9.5055,-4e-4 -9.5055,-4e-4 0,0 0,-3.1482 0,-3.1482 z m -4.4206,5.4015 c 0,0 16.0321,-0.001 16.0321,-0.001 2.1103,0 4.013,-1.6575 4.013,-3.7017 0,0 0.006,0 0.006,0 0,0 0,-3.9513 0,-3.9513 0,0 -20.0516,0 -20.0516,0 0,0 0,7.6541 0,7.6541 z m 0.5474,-23.0665 c -0.5771,3.0165 -1.9727,5.3407 -4.1919,6.9768 0,0 1.9676,0 1.9676,0 0,0 0,16.0899 0,16.0899 0,0 -4.4532,0 -4.4532,0 0,0 0,-14.7183 0,-14.7183 -0.8434,0.3438 -1.5881,0.5511 -2.2242,0.6172 0,0 -0.5473,-1.0054 -0.5473,-1.0054 2.3328,-2.2227 3.9946,-4.8776 5.0007,-7.9602 0,0 4.4483,0 4.4483,0 z m -0.5474,6.9087 c 0,0 20.0518,0 20.0518,0 0,0 0,2.1073 0,2.1073 0,0 -20.0518,0 -20.0518,0 0,0 0,-2.1073 0,-2.1073 z m 0,4.4217 c 0,0 20.0518,0 20.0518,0 0,0 0,2.1068 0,2.1068 0,0 -20.0518,0 -20.0518,0 0,0 0,-2.1068 0,-2.1068 z m 0,-8.8474 c 0,0 7.1671,0 7.1671,0 0,0 1.3855,-2.483 1.3855,-2.483 0,0 4.4485,0 4.4485,0 0,0 -1.386,2.483 -1.386,2.483 0,0 8.4367,0 8.4367,0 0,0 0,2.1068 0,2.1068 0,0 -20.0518,0 -20.0518,0 0,0 0,-2.1068 0,-2.1068 z" />
    <path
       id="path18"
       style="fill:#3a3a3a;fill-rule:evenodd"
       d="m 312.2402,180.3243 c 0,0 22.2809,0 22.2809,0 2.599,0 4.4581,-0.3395 5.5777,-1.0098 0,0 0,1.8872 0,1.8872 -0.7545,0.6525 -2.6139,0.9835 -5.5777,0.9835 0,0 -22.2809,0 -22.2809,0 0,0 0,-1.8609 0,-1.8609 z" />
    <path
       id="path20"
       style="fill:#3a3a3a;fill-rule:evenodd"
       d="m 371.9578,197.3523 c 0,0 0,-2.1068 0,-2.1068 0,0 -9.8264,0 -9.8264,0 0,0 -2.0646,0 -2.0646,0 0,0 -0.347,0 -0.347,0 0,0 0,-1.4416 0,-1.4416 0,0 -4.4534,0 -4.4534,0 0,0 0,1.4416 0,1.4416 0,0 -0.3511,0 -0.3511,0 0,0 -2.0606,0 -2.0606,0 0,0 -9.8364,0 -9.8364,0 0,0 0,2.1068 0,2.1068 0,0 10.4441,0 10.4441,0 -2.0213,1.7023 -6.2275,3.0235 -10.446,3.0453 0,0 0.002,1.9681 0.002,1.9681 5.5173,0.1833 10.6237,-1.3085 14.469,-3.8741 0.007,0 0.002,5e-4 0.004,5e-4 0.003,0 0.001,-5e-4 0.003,-5e-4 3.8461,2.5656 8.9533,4.0574 14.4713,3.8742 0,0 0.004,-1.9689 0.004,-1.9689 -4.2232,-0.0218 -8.428,-1.3422 -10.45,-3.0439 0,0 10.4381,-7e-4 10.4381,-7e-4 z" />
    <path
       id="path22"
       style="fill:#3a3a3a;fill-rule:evenodd"
       d="m 343.0164,181.7975 c 0,0 4.7242,0 4.7242,0 0,0 -1.3855,-2.483 -1.3855,-2.483 0,0 4.4482,0 4.4482,0 0,0 1.3858,2.483 1.3858,2.483 0,0 3.0773,0 3.0773,0 0,0 4.4534,0 4.4534,0 0,0 3.0625,0 3.0625,0 0,0 1.3858,-2.483 1.3858,-2.483 0,0 4.4482,0 4.4482,0 0,0 -1.386,2.483 -1.386,2.483 0,0 4.7394,0 4.7394,0 0,0 0,2.1068 0,2.1068 0,0 -12.2499,0 -12.2499,0 0,0 0,2.3189 0,2.3189 0,0 12.2499,0 12.2499,0 0,0 0,2.1073 0,2.1073 0,0 -12.2499,0 -12.2499,0 0,0 0,2.3144 0,2.3144 0,0 12.2499,0 12.2499,0 0,0 0,2.1068 0,2.1068 0,0 -12.2499,0 -12.2499,0 0,0 -4.4534,0 -4.4534,0 0,0 -12.25,0 -12.25,0 0,0 0,-2.1068 0,-2.1068 0,0 12.25,0 12.25,0 0,0 0,-2.3144 0,-2.3144 0,0 -12.25,0 -12.25,0 0,0 0,-2.1073 0,-2.1073 0,0 12.25,0 12.25,0 0,0 0,-2.3189 0,-2.3189 0,0 -12.25,0 -12.25,0 0,0 0,-2.1068 0,-2.1068 z" />
    <path
       id="path24"
       style="fill:#3a3a3a;fill-rule:evenodd"
       d="m 331.9142,195.8928 c -1.4162,0.8437 -2.8483,1.5442 -4.2479,2.1255 -0.8498,-0.3504 -1.6911,-0.7509 -2.5042,-1.2093 l -2.3895,0 -2.8106,0 c 0,0 1.4924,1.1582 4.3407,2.4171 -5.1673,1.5818 -9.2195,1.6331 -9.2195,1.6331 l 0.002,1.5061 c 5.3845,-0.246 9.5391,-0.9014 12.8415,-1.7815 3.176,0.9936 7.2583,1.7911 12.1699,1.7817 l 0.002,-1.9143 c 0,0 -3.8469,0.0235 -8.3651,-1.1089 2.7027,-1.0633 4.6818,-2.2791 6.3399,-3.4495 l 0,-2.1068 0,-0.003 -16.8129,0 0.716,-0.9462 c 0.1732,-0.2577 0.3348,-0.5145 0.4899,-0.7676 0,0 17.6322,-4e-4 17.6322,-4e-4 0,0 0,-2.3868 0,-2.3868 0,0 -16.3879,0 -16.3879,0 0.1463,-0.3509 0.2622,-0.6812 0.347,-0.9836 l -4.5869,0 c -0.0941,0.2621 -0.2337,0.5979 -0.4123,0.9844 0,0 -6.8136,-8e-4 -6.8136,-8e-4 0,0 0,2.3868 0,2.3868 0,0 5.5105,4e-4 5.5105,4e-4 -1.2791,2.0237 -3.1716,4.2786 -5.5154,5.3627 0,0 0.005,3.2718 0.005,3.2718 2.6262,-0.5231 5.229,-2.5026 7.336,-4.8109 l 12.3331,0 z" />
  </g>
</svg>
