<?xml version="1.0" encoding="utf-8"?>
<!-- Generator: Adobe Illustrator 27.1.1, SVG Export Plug-In . SVG Version: 6.00 Build 0)  -->
<svg version="1.1" id="Layer_1" xmlns="http://www.w3.org/2000/svg" xmlns:xlink="http://www.w3.org/1999/xlink" x="0px" y="0px"
	 viewBox="0 0 424.1 143.03" style="enable-background:new 0 0 424.1 143.03;" xml:space="preserve">
<style type="text/css">
	.st0{fill-rule:evenodd;clip-rule:evenodd;}
	.st1{fill:#E30613;}
	.st2{fill-rule:evenodd;clip-rule:evenodd;fill:#FFFFFF;}
</style>
<path class="st0" d="M156.11,79.69h47.15c3.42,0,5.13-2.97,5.13-6.23c0-3.56-1.71-6.68-5.13-6.68h-47.15V53.29h47.15
	c3.42,0,5.13-3.18,5.13-6.86c0-3.08-1.71-5.96-5.13-5.96h-47.15V79.69z M140.82,28.3h66.49c11.52,0,17.27,5.34,17.27,16.03
	c0,8.75-3.63,13.77-10.89,15.03c3.48,0.72,6.15,2.42,8.01,5.07c1.92,2.66,2.88,6.37,2.88,11.14c0,10.75-5.76,16.12-17.27,16.12
	h-66.49V28.3z"/>
<path class="st0" d="M306.55,28.37l-40.66,68.63L225.4,28.37h16.78c0,0,22.76,40.58,23.62,42.77c1.27-2.55,23.96-42.77,23.96-42.77
	H306.55z"/>
<path class="st0" d="M380.72,91.94h-13.19c-7.08-12-14.02-21.82-20.81-29.45c-6.74-7.64-13.46-13.03-20.15-16.18
	c-1.19-0.64-1.72-0.88-3.15-1.55v4.46v42.73h-12.16V28.29h10.77c4.11,1.64,8.11,3.76,12.02,6.36c3.96,2.61,7.79,5.58,11.51,8.91
	c3.76,3.33,7.38,6.97,10.85,10.91c3.52,3.94,6.89,8.06,10.11,12.36l2.27,3c-0.15-1.88-0.22-3.27-0.22-4.18V28.29h12.16V91.94z"/>
<path class="st1" d="M33.69,50.97c0-11.91,7.49-21.57,16.72-21.57h77.19v58.26c0,11.91-7.49,21.57-16.72,21.57H33.69V50.97z"/>
<path class="st2" d="M51.5,47.93c0,0-2.37,3.23-2.96,7.27c-0.81,5.58,2.54,15.49,12.56,18.58c18.48,5.7,44.54-16.81,45.45-42.87
	c0,0,4.63,16.56-3.03,28.56c0,0,7.25-5.66,11.01-16.7c0,0,5.64,20.6-14.91,34.49c0,0,12.28-3.3,17.28-9.72
	c0,0-4.72,20.63-28.33,22.65c0,0,9.43,2.41,19.8-0.66c0,0-10.18,13.86-35.55,7.37c0,0,8.86,6.74,18.34,7.91
	c0,0-26.22,8.43-42.29-18.7C34.97,62.64,51.5,47.93,51.5,47.93"/>
<path class="st0" d="M391.66,30.54l2.35,3.2h-1.69l-2.15-3.04v3.04h-1.38v-7.66h1.45c1.01,0,1.75,0.19,2.21,0.57
	c0.51,0.44,0.77,1.02,0.77,1.73c0,0.48-0.14,0.92-0.42,1.33c-0.28,0.4-0.62,0.66-1.05,0.79L391.66,30.54z M390.16,29.48h0.24
	c0.99,0,1.48-0.36,1.48-1.08c0-0.67-0.48-1.01-1.44-1.01h-0.28V29.48z M397.3,29.89c0,1.85-0.61,3.42-1.83,4.71
	c-1.22,1.3-2.69,1.94-4.42,1.94c-1.73,0-3.21-0.65-4.44-1.95c-1.22-1.29-1.83-2.87-1.83-4.72c0-1.02,0.2-1.96,0.59-2.8
	c0.4-0.9,0.96-1.66,1.67-2.28c1.17-1.02,2.48-1.53,3.93-1.53c0.96,0,1.84,0.19,2.61,0.58c1.11,0.51,2,1.33,2.68,2.44
	C396.96,27.4,397.3,28.6,397.3,29.89 M391,24.23c-1.43,0-2.65,0.56-3.67,1.67c-1.02,1.12-1.54,2.45-1.54,3.99
	c0,1.57,0.51,2.92,1.54,4.04c1.02,1.11,2.26,1.67,3.72,1.67c1.44,0,2.68-0.55,3.7-1.66c1.02-1.11,1.53-2.46,1.53-4.04
	c0-0.84-0.2-1.71-0.6-2.61c-0.39-0.85-0.92-1.51-1.58-2.01C393.18,24.58,392.15,24.23,391,24.23"/>
<path class="st0" d="M146.26,99.24l-2.42,9.31h-0.96l-2.39-9.31h1.42l1.08,4.67c0.12,0.51,0.25,1.17,0.41,1.98
	c0.21-1.02,0.35-1.67,0.42-1.98l1.06-4.67H146.26z"/>
<polygon class="st0" points="152.6,108.55 148.04,108.55 148.04,99.24 152.42,99.24 152.42,100.5 149.35,100.5 149.35,102.99 
	151.35,102.99 151.35,104.24 149.35,104.24 149.35,107.29 152.6,107.29 "/>
<path class="st0" d="M159.71,108.55h-1.07l-2.24-4.98c-0.13-0.32-0.35-0.83-0.65-1.53c0.02,0.46,0.02,1.07,0.02,1.86v4.65h-1.28
	v-9.31h1.3l2.01,4.44c0.13,0.31,0.35,0.82,0.65,1.52c-0.02-0.46-0.02-1.08-0.02-1.86v-4.1h1.28V108.55z"/>
<polygon class="st0" points="166.08,100.51 164.37,100.51 164.37,108.55 163.06,108.55 163.06,100.51 161.35,100.51 161.35,99.24 
	166.08,99.24 "/>
<rect x="168.05" y="99.24" class="st0" width="1.3" height="9.31"/>
<polygon class="st0" points="176.09,108.55 171.81,108.55 171.81,99.24 173.11,99.24 173.11,107.28 176.09,107.28 "/>
<path class="st0" d="M183.21,108.55h-1.43l-0.53-2.46h-2.02l-0.53,2.46h-1.38l2.29-9.31h1.33L183.21,108.55z M180.98,104.86
	l-0.35-1.57c-0.06-0.29-0.19-0.98-0.39-2.04c-0.07,0.39-0.21,1.07-0.41,2.04l-0.35,1.57H180.98z"/>
<polygon class="st0" points="189.25,100.51 187.54,100.51 187.54,108.55 186.23,108.55 186.23,100.51 184.52,100.51 184.52,99.24 
	189.25,99.24 "/>
<rect x="191.22" y="99.24" class="st0" width="1.3" height="9.31"/>
<path class="st0" d="M200.27,103.88c0,1.23-0.17,2.26-0.52,3.09c-0.48,1.16-1.25,1.73-2.31,1.73c-1.05,0-1.82-0.58-2.29-1.73
	c-0.33-0.81-0.5-1.83-0.5-3.06c0-1.23,0.17-2.26,0.5-3.08c0.48-1.16,1.25-1.73,2.3-1.73c1.07,0,1.84,0.57,2.31,1.7
	C200.1,101.62,200.27,102.64,200.27,103.88 M198.94,103.91c0-0.81-0.08-1.51-0.23-2.1c-0.26-0.93-0.68-1.4-1.28-1.4
	c-0.97,0-1.45,1.16-1.45,3.49c0,0.81,0.08,1.51,0.23,2.1c0.26,0.94,0.68,1.4,1.26,1.4C198.45,107.39,198.94,106.23,198.94,103.91"/>
<path class="st0" d="M206.88,108.55h-1.07l-2.24-4.98c-0.13-0.32-0.35-0.83-0.65-1.53c0.02,0.46,0.02,1.07,0.02,1.86v4.65h-1.28
	v-9.31h1.3l2.01,4.44c0.13,0.31,0.35,0.82,0.65,1.52c-0.02-0.46-0.02-1.08-0.02-1.86v-4.1h1.28V108.55z"/>
<path class="st0" d="M217.95,106.15c0,0.78-0.23,1.4-0.69,1.87c-0.45,0.46-1.06,0.68-1.85,0.68c-1.05,0-1.87-0.51-2.46-1.52
	l1.02-0.83c0.44,0.69,0.94,1.03,1.52,1.03c0.74,0,1.11-0.39,1.11-1.18c0-0.43-0.17-0.82-0.51-1.16c-0.18-0.19-0.54-0.45-1.05-0.79
	c-0.62-0.41-1.06-0.79-1.33-1.12c-0.36-0.47-0.54-1.04-0.54-1.71c0-0.7,0.22-1.26,0.65-1.68c0.43-0.43,1-0.64,1.7-0.64
	c0.93,0,1.69,0.42,2.27,1.26l-0.96,0.85c-0.4-0.54-0.85-0.81-1.34-0.81c-0.65,0-0.98,0.33-0.98,0.99c0,0.39,0.14,0.73,0.43,1.03
	c0.17,0.18,0.48,0.42,0.93,0.71c0.69,0.44,1.18,0.84,1.47,1.21C217.75,104.83,217.95,105.44,217.95,106.15"/>
<path class="st0" d="M224.88,99.24l-2.3,5.16v4.16h-1.3v-4.12l-2.37-5.19h1.48l0.82,1.95c0.37,0.85,0.61,1.5,0.73,1.94
	c0.12-0.44,0.37-1.08,0.72-1.95l0.8-1.94H224.88z"/>
<path class="st0" d="M230.92,106.15c0,0.78-0.23,1.4-0.68,1.87c-0.45,0.46-1.06,0.68-1.85,0.68c-1.05,0-1.87-0.51-2.46-1.52
	l1.02-0.83c0.44,0.69,0.94,1.03,1.52,1.03c0.74,0,1.11-0.39,1.11-1.18c0-0.43-0.17-0.82-0.51-1.16c-0.18-0.19-0.54-0.45-1.06-0.79
	c-0.62-0.41-1.06-0.79-1.33-1.12c-0.36-0.47-0.55-1.04-0.55-1.71c0-0.7,0.22-1.26,0.65-1.68c0.43-0.43,1-0.64,1.71-0.64
	c0.93,0,1.69,0.42,2.27,1.26l-0.96,0.85c-0.4-0.54-0.85-0.81-1.33-0.81c-0.65,0-0.98,0.33-0.98,0.99c0,0.39,0.14,0.73,0.43,1.03
	c0.17,0.18,0.48,0.42,0.93,0.71c0.69,0.44,1.18,0.84,1.47,1.21C230.72,104.83,230.92,105.44,230.92,106.15"/>
<polygon class="st0" points="237.15,100.51 235.44,100.51 235.44,108.55 234.13,108.55 234.13,100.51 232.42,100.51 232.42,99.24 
	237.15,99.24 "/>
<polygon class="st0" points="243.6,108.55 239.05,108.55 239.05,99.24 243.43,99.24 243.43,100.5 240.35,100.5 240.35,102.99 
	242.36,102.99 242.36,104.24 240.35,104.24 240.35,107.29 243.6,107.29 "/>
<path class="st0" d="M251.79,108.55h-1.28v-3.75c0-1.06,0.01-1.82,0.02-2.3c-0.17,0.6-0.41,1.4-0.72,2.4l-1.2,3.9l-1.2-3.9
	c-0.31-1-0.55-1.8-0.72-2.4c0.02,0.48,0.02,1.24,0.02,2.3v3.75h-1.22v-9.31h1.37l1.2,3.88c0.25,0.78,0.44,1.46,0.57,2.03
	c0.29-1.06,0.49-1.75,0.59-2.08l1.2-3.83h1.36V108.55z"/>
<path class="st0" d="M258.6,106.15c0,0.78-0.23,1.4-0.68,1.87c-0.45,0.46-1.07,0.68-1.85,0.68c-1.04,0-1.86-0.51-2.46-1.52
	l1.02-0.83c0.43,0.69,0.94,1.03,1.52,1.03c0.74,0,1.11-0.39,1.11-1.18c0-0.43-0.17-0.82-0.51-1.16c-0.18-0.19-0.54-0.45-1.06-0.79
	c-0.62-0.41-1.06-0.79-1.33-1.12c-0.36-0.47-0.54-1.04-0.54-1.71c0-0.7,0.22-1.26,0.65-1.68c0.43-0.43,1-0.64,1.71-0.64
	c0.93,0,1.68,0.42,2.26,1.26l-0.96,0.85c-0.4-0.54-0.85-0.81-1.34-0.81c-0.65,0-0.98,0.33-0.98,0.99c0,0.39,0.15,0.73,0.43,1.03
	c0.17,0.18,0.48,0.42,0.93,0.71c0.69,0.44,1.18,0.84,1.47,1.21C258.41,104.83,258.6,105.44,258.6,106.15"/>
<path class="st0" d="M269.26,108.55h-1.34l-0.46-0.79c-0.48,0.62-1.11,0.94-1.88,0.94c-0.71,0-1.25-0.21-1.62-0.63
	c-0.35-0.39-0.52-0.95-0.52-1.67c0-1.1,0.51-2.06,1.51-2.88l-0.22-0.39c-0.3-0.53-0.5-0.89-0.58-1.09
	c-0.14-0.34-0.21-0.68-0.21-1.01c0-0.6,0.21-1.07,0.62-1.43c0.4-0.33,0.89-0.5,1.5-0.5c0.76,0,1.45,0.25,2.09,0.74l-0.63,1.07
	c-0.55-0.39-1.04-0.59-1.48-0.59c-0.54,0-0.82,0.23-0.82,0.68c0,0.43,0.15,0.89,0.44,1.39l1.67,2.88c0.12-0.4,0.24-0.86,0.36-1.4
	l1.07,0.29c-0.25,1.05-0.48,1.84-0.7,2.37L269.26,108.55z M266.83,106.71l-1.3-2.21c-0.55,0.57-0.82,1.16-0.82,1.75
	c0,0.81,0.33,1.22,0.99,1.22C266.15,107.47,266.53,107.22,266.83,106.71"/>
<polygon class="st0" points="279.12,108.55 274.57,108.55 274.57,99.24 278.95,99.24 278.95,100.5 275.87,100.5 275.87,102.99 
	277.88,102.99 277.88,104.24 275.87,104.24 275.87,107.29 279.12,107.29 "/>
<polygon class="st0" points="285.18,108.55 280.89,108.55 280.89,99.24 282.19,99.24 282.19,107.28 285.18,107.28 "/>
<polygon class="st0" points="291.4,108.55 286.85,108.55 286.85,99.24 291.23,99.24 291.23,100.5 288.15,100.5 288.15,102.99 
	290.16,102.99 290.16,104.24 288.15,104.24 288.15,107.29 291.4,107.29 "/>
<path class="st0" d="M298.05,106.35c-0.33,1.57-1.15,2.36-2.47,2.36c-1.06,0-1.82-0.57-2.26-1.72c-0.31-0.79-0.46-1.82-0.46-3.08
	c0-1.23,0.16-2.26,0.49-3.08c0.47-1.16,1.24-1.73,2.29-1.73c1.36,0,2.16,0.76,2.42,2.28l-1.31,0.32c-0.17-0.86-0.56-1.29-1.15-1.29
	c-0.93,0-1.39,1.16-1.39,3.47c0,0.82,0.08,1.52,0.23,2.1c0.25,0.93,0.67,1.39,1.25,1.39c0.36,0,0.63-0.15,0.83-0.46
	c0.12-0.18,0.23-0.5,0.35-0.95L298.05,106.35z"/>
<polygon class="st0" points="304.2,100.51 302.49,100.51 302.49,108.55 301.18,108.55 301.18,100.51 299.47,100.51 299.47,99.24 
	304.2,99.24 "/>
<path class="st0" d="M311.21,108.55h-1.45l-1.4-4.05h-1.08v4.05h-1.3v-9.31h2.62c0.81,0,1.43,0.23,1.89,0.68
	c0.46,0.46,0.7,1.09,0.7,1.9c0,1.25-0.49,2.06-1.46,2.44L311.21,108.55z M309.83,101.86c0-0.91-0.45-1.36-1.35-1.36h-1.22v2.74h1.22
	C309.39,103.24,309.83,102.78,309.83,101.86"/>
<rect x="313.22" y="99.24" class="st0" width="1.3" height="9.31"/>
<path class="st0" d="M321.72,106.35c-0.32,1.57-1.15,2.36-2.47,2.36c-1.06,0-1.82-0.57-2.26-1.72c-0.31-0.79-0.46-1.82-0.46-3.08
	c0-1.23,0.16-2.26,0.49-3.08c0.47-1.16,1.23-1.73,2.29-1.73c1.35,0,2.16,0.76,2.41,2.28l-1.31,0.32c-0.17-0.86-0.55-1.29-1.15-1.29
	c-0.93,0-1.39,1.16-1.39,3.47c0,0.82,0.08,1.52,0.23,2.1c0.25,0.93,0.67,1.39,1.25,1.39c0.36,0,0.63-0.15,0.83-0.46
	c0.12-0.18,0.23-0.5,0.35-0.95L321.72,106.35z"/>
<path class="st0" d="M328.94,108.55h-1.43l-0.53-2.46h-2.02l-0.53,2.46h-1.38l2.29-9.31h1.33L328.94,108.55z M326.71,104.86
	l-0.35-1.57c-0.06-0.29-0.2-0.98-0.4-2.04c-0.07,0.39-0.2,1.07-0.41,2.04l-0.35,1.57H326.71z"/>
<polygon class="st0" points="334.89,108.55 330.6,108.55 330.6,99.24 331.9,99.24 331.9,107.28 334.89,107.28 "/>
<path class="st0" d="M346.57,108.55h-1.28v-3.75c0-1.06,0.01-1.82,0.02-2.3c-0.17,0.6-0.41,1.4-0.72,2.4l-1.2,3.9l-1.2-3.9
	c-0.31-1-0.55-1.8-0.72-2.4c0.01,0.48,0.02,1.24,0.02,2.3v3.75h-1.22v-9.31h1.37l1.2,3.88c0.25,0.78,0.44,1.46,0.57,2.03
	c0.29-1.06,0.49-1.75,0.59-2.08l1.2-3.83h1.36V108.55z"/>
<path class="st0" d="M354.13,103.88c0,1.23-0.17,2.26-0.52,3.09c-0.48,1.16-1.25,1.73-2.31,1.73c-1.05,0-1.81-0.58-2.29-1.73
	c-0.33-0.81-0.5-1.83-0.5-3.06c0-1.23,0.17-2.26,0.5-3.08c0.48-1.16,1.25-1.73,2.3-1.73c1.07,0,1.84,0.57,2.31,1.7
	C353.96,101.62,354.13,102.64,354.13,103.88 M352.79,103.91c0-0.81-0.08-1.51-0.23-2.1c-0.26-0.93-0.68-1.4-1.28-1.4
	c-0.97,0-1.45,1.16-1.45,3.49c0,0.81,0.08,1.51,0.23,2.1c0.25,0.94,0.68,1.4,1.26,1.4C352.3,107.39,352.79,106.23,352.79,103.91"/>
<polygon class="st0" points="360.28,100.51 358.58,100.51 358.58,108.55 357.26,108.55 357.26,100.51 355.56,100.51 355.56,99.24 
	360.28,99.24 "/>
<path class="st0" d="M367.35,103.88c0,1.23-0.17,2.26-0.52,3.09c-0.48,1.16-1.25,1.73-2.31,1.73c-1.05,0-1.82-0.58-2.29-1.73
	c-0.33-0.81-0.5-1.83-0.5-3.06c0-1.23,0.17-2.26,0.5-3.08c0.48-1.16,1.25-1.73,2.3-1.73c1.07,0,1.84,0.57,2.31,1.7
	C367.18,101.62,367.35,102.64,367.35,103.88 M366.01,103.91c0-0.81-0.08-1.51-0.23-2.1c-0.26-0.93-0.68-1.4-1.28-1.4
	c-0.97,0-1.45,1.16-1.45,3.49c0,0.81,0.08,1.51,0.23,2.1c0.26,0.94,0.68,1.4,1.27,1.4C365.53,107.39,366.01,106.23,366.01,103.91"/>
<path class="st0" d="M374.51,108.55h-1.45l-1.41-4.05h-1.08v4.05h-1.3v-9.31h2.62c0.81,0,1.43,0.23,1.89,0.68
	c0.46,0.46,0.7,1.09,0.7,1.9c0,1.25-0.49,2.06-1.46,2.44L374.51,108.55z M373.14,101.86c0-0.91-0.45-1.36-1.35-1.36h-1.22v2.74h1.22
	C372.69,103.24,373.14,102.78,373.14,101.86"/>
<path class="st0" d="M380.88,106.15c0,0.78-0.23,1.4-0.69,1.87c-0.45,0.46-1.06,0.68-1.85,0.68c-1.05,0-1.87-0.51-2.46-1.52
	l1.02-0.83c0.43,0.69,0.94,1.03,1.52,1.03c0.75,0,1.11-0.39,1.11-1.18c0-0.43-0.17-0.82-0.51-1.16c-0.19-0.19-0.54-0.45-1.06-0.79
	c-0.62-0.41-1.06-0.79-1.33-1.12c-0.36-0.47-0.54-1.04-0.54-1.71c0-0.7,0.21-1.26,0.65-1.68c0.43-0.43,1-0.64,1.71-0.64
	c0.93,0,1.68,0.42,2.26,1.26l-0.96,0.85c-0.4-0.54-0.85-0.81-1.34-0.81c-0.65,0-0.98,0.33-0.98,0.99c0,0.39,0.14,0.73,0.43,1.03
	c0.17,0.18,0.48,0.42,0.93,0.71c0.69,0.44,1.18,0.84,1.47,1.21C380.68,104.83,380.88,105.44,380.88,106.15"/>
</svg>
