<?xml version="1.0" encoding="UTF-8"?>
<svg xmlns="http://www.w3.org/2000/svg" version="1.1" viewBox="0 0 2394.32 512.68">
  <defs>
    <style>
      .cls-1 {
        fill: #fff;
      }

      .cls-2 {
        fill: #192d8e;
      }

      .cls-3 {
        fill: #0a1156;
      }

      .cls-4 {
        fill: #2c4cbf;
      }

      .cls-5 {
        fill: #4a72e5;
      }
    </style>
  </defs>
  <!-- Generator: Adobe Illustrator 28.6.0, SVG Export Plug-In . SVG Version: 1.2.0 Build 709)  -->
  <g>
    <g id="Layer_1">
      <g>
        <path class="cls-3" d="M1116.9,334.37c-5.03,0-10.1.09-15.09.64-23.08,2.59-30.2,13.6-30.08,38.23h231.85v46.97h-231.85v38.69h231.68v53.19h-292.78c0-51.5-1.08-102.25.34-152.94,1.17-41.96,30.27-71.28,72.33-76.57,7.04-.89,14.17-1.59,21.26-1.6l198.9-.08v53.43l-186.54.03Z"/>
        <path class="cls-3" d="M366.32,512.1h60.95v-92.07h196.37v-46.61h-195.48c-3.46-22.6,6.7-39.09,27.98-39.09h203.14v-53.38l-216.04-.03c-42.56,0-76.92,34.55-76.92,77.11v154.07Z"/>
        <path class="cls-3" d="M790.59,459.26c-28.09-.12-37.87-10.34-37.88-38.18v-140.17h-60.49c0,51.99-1.12,104,.42,155.27.93,31.16,16.53,55.72,46.6,67.33,14.3,5.52,30.38,8.58,45.72,8.58h200.26v-52.73l-194.63-.1Z"/>
        <rect class="cls-3" x="1662.26" y="280.92" width="59.69" height="231.16"/>
        <g>
          <path class="cls-3" d="M54.08,98.77C112.79,23.38,205.27-10.21,293.52,2.7c-58.96,5.49-110.44,29.79-153.31,73.99-50.71,52.26-74.23,115.89-72.09,188.53,3.67,125.41,97.22,233.78,225.4,244.4-67.4,10.55-136.64-6.07-194.72-51.3C-12.84,371.38-32.86,210.41,54.08,98.77Z"/>
          <path class="cls-2" d="M269.12,32.38c45.84-8.5,87.9-3.08,125.74,14.98,22.22,10.61,41.94,25.98,57.78,44.83l.2.24c-89.31-44.22-176.5-40.05-255.37,25.3-83.92,69.56-101.23,160.16-67.18,262.03-43.17-55.24-57.58-117.71-38.63-185.17,25.21-89.85,85.89-145.24,177.46-162.22Z"/>
          <path class="cls-4" d="M208.41,135.07c79.93-66.68,194.52-66.91,272.99-.33-79.4-27.32-154.13-19.67-223.77,23.94-70.02,43.86-108.2,108.47-116.25,192.08-22.2-66.1-1.59-158.47,67.03-215.68Z"/>
          <path class="cls-5" d="M287.82,163.26c84.18-33.35,158.89-25.37,218.64,39.12,1.26,1.81,3.14,3.57,4.88,5.82-46.3-23.19-91.75-33.17-136.69-29.32-39.31,3.39-77.42,15.85-111.35,35.97-43.15,25.63-75.02,59.8-99.05,107.79,2.87-59.58,49.14-129.89,123.57-159.37Z"/>
        </g>
        <path class="cls-3" d="M1535.3,396.84c33.28,38.29,65.9,75.69,100.36,115.3h-68.03c-2.58,0-5.23-2.58-7.22-4.86l-79.81-91.08-79.81,91.08c-1.99,2.28-4.64,4.86-7.22,4.86h-68.03c34.46-39.61,67.08-77.01,100.36-115.3-33.35-38.28-66.41-76.28-101.02-115.89h63.25c5.96-.15,9.72,1.77,13.47,6.18,26.06,30.26,52.28,60.23,79,90.93,26.73-30.71,52.94-60.67,79-90.93,3.76-4.42,7.51-6.33,13.47-6.18h63.25c-34.61,39.61-67.66,77.6-101.02,115.89Z"/>
        <path class="cls-3" d="M2090.09,280.95l-101.09,192.39c-13.62,26.95-42.56,38.87-70.98,38.65-28.42.22-57.36-11.71-70.98-38.65l-101.09-192.39h50.07c13.69,0,20.62,3.16,26.87,15.53l77.38,146.22c4.42,8.39,10.82,13.18,17.75,13.25,6.92-.07,13.33-4.86,17.74-13.25l77.38-146.22c6.26-12.37,13.18-15.53,26.87-15.53h50.07Z"/>
        <path class="cls-3" d="M2317.6,329.32c-11.41-25.33-17.45-48.37-96.75-48.37s-85.26,23.04-96.75,48.37l-76.72,182.82h61.04c1.91,0,4.64-2.65,5.6-4.86,4.71-10.6,9.2-21.35,13.33-32.18,1.77-4.71,4.12-6.77,9.57-6.7,27.98.15,55.96.15,83.94.15s55.96,0,83.94-.15c5.45-.08,7.8,1.99,9.57,6.7,4.12,10.82,8.61,21.57,13.33,32.18.96,2.21,3.68,4.86,5.6,4.86h61.04l-76.72-182.82ZM2152.68,415.02c9.79-22.97,18.55-45.13,28.94-66.49,2.43-4.93,10.09-9.57,15.83-10.23,7.73-.81,15.54-.96,23.41-.96s15.68.15,23.41.96c5.74.66,13.4,5.3,15.83,10.23,10.38,21.36,19.14,43.52,28.94,66.49h-136.36Z"/>
      </g>
      <path class="cls-1" d="M1292.65-212.72c3.22,0,3.22-5,0-5s-3.22,5,0,5h0Z"/>
    </g>
  </g>
</svg>