<?xml version="1.0" encoding="UTF-8"?>
<svg id="katman_1" xmlns="http://www.w3.org/2000/svg" version="1.1" xmlns:xlink="http://www.w3.org/1999/xlink" viewBox="0 0 566 305">
  <!-- Generator: Adobe Illustrator 29.5.1, SVG Export Plug-In . SVG Version: 2.1.0 Build 141)  -->
  <defs>
    <style>
      .st0 {
        stroke-width: 1.55px;
      }

      .st0, .st1, .st2, .st3, .st4, .st5, .st6 {
        stroke-miterlimit: 3.86;
      }

      .st0, .st1, .st3, .st5 {
        stroke: #fff;
      }

      .st0, .st7, .st8, .st4, .st5 {
        fill-rule: evenodd;
      }

      .st0, .st2, .st3, .st4, .st5 {
        fill: none;
      }

      .st1 {
        clip-rule: evenodd;
      }

      .st1, .st8 {
        fill: #0050a0;
      }

      .st1, .st5 {
        stroke-width: 1.62px;
      }

      .st7 {
        fill: #4abed3;
      }

      .st2, .st6 {
        stroke: #0050a0;
        stroke-width: 1.94px;
      }

      .st3 {
        stroke-width: 1.08px;
      }

      .st4 {
        stroke: #4abed3;
        stroke-width: .47px;
      }

      .st6 {
        fill: #fff;
      }

      .st9 {
        clip-path: url(#clippath);
      }
    </style>
    <clipPath id="clippath">
      <polygon class="st1" points="234.01 162.74 333.62 162.74 314.65 97.34 295.68 97.34 281.41 153.03 267.2 97.34 249.82 97.34 234.01 162.74"/>
    </clipPath>
  </defs>
  <g>
    <g>
      <path class="st8" d="M37.76,236.92h13.1l1.58-17.13c.15-1.6.25-3.24.34-4.84h.44c.1,1.7.45,3.3.85,5l4.84,16.97h7.91l5.39-17.98c.39-1.28.64-2.66.89-3.99h.24l1.83,21.97h13.1l-6.13-40.11h-13.79l-4.2,15.75c-.45,1.7-.69,3.57-.94,5.32h-.34l-5.14-21.07h-13.94l-6.03,40.11Z"/>
      <path class="st8" d="M109.62,231.92h10.23l1.24,5h14.33l-13.3-40.11h-14.98l-12.95,40.11h14.34l1.08-5ZM112.05,222.4l2.47-12.24h.5c.25,1.7.49,3.46.89,5.16l1.58,7.08h-5.44Z"/>
      <path class="st8" d="M143.08,236.92h13.2l-.29-16.81h.29c.3,1.65,1.48,3.14,2.28,4.68l6.43,12.13h15.72l-12.9-20.59,11.66-19.52h-14.78l-6.52,12.87c-.74,1.44-1.59,2.87-1.88,4.52h-.29l.29-17.4h-13.2v40.11Z"/>
      <path class="st8" d="M188.3,236.92h13.25v-12.87h.24l5.94,12.87h15.62l-8.11-13.03c-.74-1.17-1.58-1.81-2.27-2.39v-.32c5.05-1.81,7.22-4.36,7.22-10.43,0-10.11-7.12-13.94-15.52-13.94h-16.36v40.11ZM201.55,207.77h1.03c2.32,0,4.35.37,4.35,3.46s-2.23,3.35-4.45,3.35h-.94v-6.81Z"/>
      <path class="st8" d="M249.74,196.18c-11.32,0-20.61,8.19-20.61,20.8s9.24,20.59,20.61,20.59,20.61-7.71,20.61-20.59-9.29-20.8-20.61-20.8ZM249.74,209.37c4.3,0,6.97,3.56,6.97,7.82,0,4.58-2.86,7.71-6.97,7.71s-6.97-3.14-6.97-7.71c0-4.26,2.67-7.82,6.97-7.82Z"/>
      <polygon class="st8" points="302.6 209.85 310.06 209.48 310.06 236.92 323.61 236.92 323.61 209.48 331.07 209.85 331.07 196.81 302.6 196.81 302.6 209.85"/>
      <polygon class="st8" points="339.17 236.92 364.62 236.92 364.62 225.96 352.81 225.96 352.81 222.03 363.23 222.03 363.23 211.6 352.81 211.6 352.81 207.77 364.22 207.77 364.22 196.81 339.17 196.81 339.17 236.92"/>
      <path class="st8" d="M375.04,236.92h13.2l-.3-16.81h.3c.3,1.65,1.48,3.14,2.28,4.68l6.42,12.13h15.72l-12.9-20.59,11.66-19.52h-14.78l-6.52,12.87c-.74,1.44-1.58,2.87-1.88,4.52h-.3l.3-17.4h-13.2v40.11Z"/>
      <path class="st8" d="M420.05,236.92h12.95v-13.03c0-2.66-.39-5.27-.83-8.03h.4l11.91,21.06h12.95v-40.11h-12.95v12.02c0,3.41.59,6.86,1.14,10.21h-.39l-12.16-22.24h-13v40.11Z"/>
      <path class="st8" d="M468.19,236.92h13.54v-40.11h-13.54v40.11ZM474.97,184.31c-2.27,0-4.1,1.97-4.1,4.41s1.83,4.41,4.1,4.41,4.1-1.97,4.1-4.41-1.83-4.41-4.1-4.41Z"/>
      <path class="st8" d="M492.83,236.92h13.2l-.3-16.81h.3c.29,1.65,1.48,3.14,2.27,4.68l6.43,12.13h15.72l-12.9-20.59,11.66-19.52h-14.78l-6.53,12.87c-.74,1.44-1.58,2.87-1.87,4.52h-.3l.3-17.4h-13.2v40.11Z"/>
    </g>
    <g>
      <g>
        <path class="st7" d="M41.44,194.48h13.19l5.14,21.06h1.1l.06-.4c.25-1.74.49-3.58.93-5.27l4.11-15.4h13.05l5.99,39.18h-12.14l-1.83-21.97h-1.04c-.32,1.69-.56,3.06-.95,4.32l-5.28,17.65h-7.23l-4.74-16.62c-.39-1.68-.73-3.23-.83-4.91l-.02-.44h-1.3l-.03.44c-.1,1.59-.19,3.24-.34,4.83l-1.55,16.71h-12.15l5.89-39.18Z"/>
        <path class="st4" d="M41.44,194.48h13.19l5.14,21.06h1.1l.06-.4c.25-1.74.49-3.58.93-5.27l4.11-15.4h13.05l5.99,39.18h-12.14l-1.83-21.97h-1.04c-.32,1.69-.56,3.06-.95,4.32l-5.28,17.65h-7.23l-4.74-16.62c-.39-1.68-.73-3.23-.83-4.91l-.02-.44h-1.3l-.03.44c-.1,1.59-.19,3.24-.34,4.83l-1.55,16.71h-12.15l5.89-39.18Z"/>
      </g>
      <g>
        <path class="st7" d="M105.43,233.66h-13.34l12.65-39.18h14.32l12.99,39.18h-13.34l-1.24-5h-10.96l-1.08,5ZM115.31,220.07l-1.71-7.65c-.39-1.69-.64-3.43-.88-5.12l-.06-.4h-1.26l-2.67,13.17h6.58Z"/>
        <path class="st4" d="M105.43,233.66h-13.34l12.65-39.18h14.32l12.99,39.18h-13.34l-1.24-5h-10.96l-1.08,5ZM115.31,220.07l-1.71-7.65c-.39-1.69-.64-3.43-.88-5.12l-.06-.4h-1.26l-2.67,13.17h6.58Z"/>
      </g>
      <g>
        <path class="st7" d="M140.8,194.48h12.28l-.3,17.39h1.15l.07-.38c.14-.77.41-1.5.74-2.23.34-.74.73-1.45,1.1-2.16l6.39-12.62h13.69l-11.39,19.06,12.6,20.12h-14.61l-6.3-11.88c-.4-.78-.9-1.54-1.33-2.31-.43-.76-.77-1.49-.9-2.23l-.07-.38h-1.15l.3,16.81h-12.28v-39.18Z"/>
        <path class="st4" d="M140.8,194.48h12.28l-.3,17.39h1.15l.07-.38c.14-.77.41-1.5.74-2.23.34-.74.73-1.45,1.1-2.16l6.39-12.62h13.69l-11.39,19.06,12.6,20.12h-14.61l-6.3-11.88c-.4-.78-.9-1.54-1.33-2.31-.43-.76-.77-1.49-.9-2.23l-.07-.38h-1.15l.3,16.81h-12.28v-39.18Z"/>
      </g>
      <g>
        <path class="st7" d="M186.02,194.48h15.9c8.27,0,15.07,3.73,15.07,13.47,0,5.85-2.04,8.24-6.91,9.99l-.31.98c.51.43.88.73,1.26,1.1.37.36.74.78,1.09,1.33l7.66,12.32h-14.49l-5.93-12.87h-.99v12.87h-12.33v-39.18ZM198.35,212.25h1.4c2.2,0,4.9-.37,4.9-3.82s-2.47-3.93-4.81-3.93h-1.49v7.75Z"/>
        <path class="st4" d="M186.02,194.48h15.9c8.27,0,15.07,3.73,15.07,13.47,0,5.85-2.04,8.24-6.91,9.99l-.31.98c.51.43.88.73,1.26,1.1.37.36.74.78,1.09,1.33l7.66,12.32h-14.49l-5.93-12.87h-.99v12.87h-12.33v-39.18ZM198.35,212.25h1.4c2.2,0,4.9-.37,4.9-3.82s-2.47-3.93-4.81-3.93h-1.49v7.75Z"/>
      </g>
      <g>
        <path class="st7" d="M267.15,214.17c0,12.58-9,20.12-20.16,20.12s-20.15-7.54-20.15-20.12,9.06-20.33,20.15-20.33,20.16,8.01,20.16,20.33ZM239.57,214.39c0,4.8,3.04,8.18,7.42,8.18s7.43-3.38,7.43-8.18c0-4.45-2.82-8.29-7.43-8.29s-7.42,3.84-7.42,8.29Z"/>
        <path class="st4" d="M267.15,214.17c0,12.58-9,20.12-20.16,20.12s-20.15-7.54-20.15-20.12,9.06-20.33,20.15-20.33,20.16,8.01,20.16,20.33ZM239.57,214.39c0,4.8,3.04,8.18,7.42,8.18s7.43-3.38,7.43-8.18c0-4.45-2.82-8.29-7.43-8.29s-7.42,3.84-7.42,8.29Z"/>
      </g>
      <g>
        <polygon class="st7" points="300.32 194.48 327.87 194.48 327.87 206.56 320.41 206.18 320.41 233.66 307.78 233.66 307.78 206.18 300.32 206.56 300.32 194.48"/>
        <polygon class="st4" points="300.32 194.48 327.87 194.48 327.87 206.56 320.41 206.18 320.41 233.66 307.78 233.66 307.78 206.18 300.32 206.56 300.32 194.48"/>
      </g>
      <g>
        <polygon class="st7" points="336.88 194.48 361.03 194.48 361.03 204.5 349.6 204.5 349.6 209.27 360.04 209.27 360.04 218.76 349.6 218.76 349.6 223.63 361.42 223.63 361.42 233.66 336.88 233.66 336.88 194.48"/>
        <polygon class="st4" points="336.88 194.48 361.03 194.48 361.03 204.5 349.6 204.5 349.6 209.27 360.04 209.27 360.04 218.76 349.6 218.76 349.6 223.63 361.42 223.63 361.42 233.66 336.88 233.66 336.88 194.48"/>
      </g>
      <g>
        <path class="st7" d="M372.75,194.48h12.27l-.29,17.39h1.15l.06-.38c.14-.77.41-1.5.74-2.23.34-.74.73-1.45,1.1-2.16l6.4-12.62h13.68l-11.39,19.06,12.6,20.12h-14.61l-6.29-11.88c-.4-.78-.9-1.54-1.33-2.31-.43-.76-.77-1.49-.9-2.23l-.06-.38h-1.15l.29,16.81h-12.27v-39.18Z"/>
        <path class="st4" d="M372.75,194.48h12.27l-.29,17.39h1.15l.06-.38c.14-.77.41-1.5.74-2.23.34-.74.73-1.45,1.1-2.16l6.4-12.62h13.68l-11.39,19.06,12.6,20.12h-14.61l-6.29-11.88c-.4-.78-.9-1.54-1.33-2.31-.43-.76-.77-1.49-.9-2.23l-.06-.38h-1.15l.29,16.81h-12.27v-39.18Z"/>
      </g>
      <g>
        <path class="st7" d="M417.77,194.48h12.28l12.16,22.24h1.2l-.09-.54c-.54-3.32-1.13-6.76-1.13-10.14v-11.56h12.03v39.18h-12.22l-11.92-21.07h-1.2l.08.54c.45,2.74.84,5.32.84,7.96v12.57h-12.03v-39.18Z"/>
        <path class="st4" d="M417.77,194.48h12.28l12.16,22.24h1.2l-.09-.54c-.54-3.32-1.13-6.76-1.13-10.14v-11.56h12.03v39.18h-12.22l-11.92-21.07h-1.2l.08.54c.45,2.74.84,5.32.84,7.96v12.57h-12.03v-39.18Z"/>
      </g>
      <g>
        <path class="st7" d="M465.91,194.48h12.63v39.18h-12.63v-39.18ZM475.87,185.93c0,2.21-1.64,3.95-3.64,3.95s-3.65-1.74-3.65-3.95,1.65-3.95,3.65-3.95,3.64,1.74,3.64,3.95Z"/>
        <path class="st4" d="M465.91,194.48h12.63v39.18h-12.63v-39.18ZM475.87,185.93c0,2.21-1.64,3.95-3.64,3.95s-3.65-1.74-3.65-3.95,1.65-3.95,3.65-3.95,3.64,1.74,3.64,3.95Z"/>
      </g>
      <g>
        <path class="st7" d="M490.55,194.48h12.28l-.29,17.39h1.14l.07-.38c.13-.77.41-1.5.73-2.23.34-.74.73-1.45,1.1-2.16l6.4-12.62h13.69l-11.39,19.06,12.6,20.12h-14.61l-6.3-11.88c-.4-.78-.89-1.54-1.33-2.31-.42-.76-.77-1.49-.9-2.23l-.07-.38h-1.15l.3,16.81h-12.28v-39.18Z"/>
        <path class="st4" d="M490.55,194.48h12.28l-.29,17.39h1.14l.07-.38c.13-.77.41-1.5.73-2.23.34-.74.73-1.45,1.1-2.16l6.4-12.62h13.69l-11.39,19.06,12.6,20.12h-14.61l-6.3-11.88c-.4-.78-.89-1.54-1.33-2.31-.42-.76-.77-1.49-.9-2.23l-.07-.38h-1.15l.3,16.81h-12.28v-39.18Z"/>
      </g>
    </g>
  </g>
  <g>
    <g>
      <path class="st6" d="M221.33,82.32c0-8.22,6.52-14.88,14.56-14.88h94.2c8.05,0,14.57,6.66,14.57,14.88v75.36c0,8.21-6.52,14.87-14.57,14.87h-94.2c-8.04,0-14.56-6.66-14.56-14.87v-75.36h0Z"/>
      <path class="st2" d="M283,120"/>
    </g>
    <g>
      <g>
        <polygon class="st7" points="235.6 78.77 328.87 78.77 314.65 97.34 296.47 97.34 281.46 153.44 267.2 97.34 249.02 97.34 235.6 78.77"/>
        <polygon class="st0" points="235.6 78.77 328.87 78.77 314.65 97.34 296.47 97.34 281.46 153.44 267.2 97.34 249.02 97.34 235.6 78.77"/>
      </g>
      <g>
        <polygon class="st8" points="234.01 162.74 333.62 162.74 314.65 97.34 295.68 97.34 281.41 153.03 267.2 97.34 249.82 97.34 234.01 162.74"/>
        <g class="st9">
          <g>
            <line class="st3" x1="239.22" y1="108.75" x2="325.93" y2="108.75"/>
            <line class="st3" x1="239.22" y1="117.6" x2="325.93" y2="117.6"/>
            <line class="st3" x1="239.22" y1="125.48" x2="325.93" y2="125.48"/>
            <line class="st3" x1="239.22" y1="132.69" x2="325.93" y2="132.69"/>
            <line class="st3" x1="236.97" y1="139.58" x2="328.82" y2="139.58"/>
            <line class="st3" x1="235.36" y1="145.81" x2="330.11" y2="145.81"/>
            <line class="st3" x1="235.68" y1="152.05" x2="331.4" y2="152.05"/>
            <line class="st3" x1="233.11" y1="157.29" x2="333" y2="157.29"/>
          </g>
        </g>
        <polygon class="st5" points="234.01 162.74 333.62 162.74 314.65 97.34 295.68 97.34 281.41 153.03 267.2 97.34 249.82 97.34 234.01 162.74"/>
      </g>
    </g>
  </g>
</svg>