<?xml version="1.0" encoding="UTF-8" standalone="no"?>
<svg
   xmlns:dc="http://purl.org/dc/elements/1.1/"
   xmlns:cc="http://creativecommons.org/ns#"
   xmlns:rdf="http://www.w3.org/1999/02/22-rdf-syntax-ns#"
   xmlns:svg="http://www.w3.org/2000/svg"
   xmlns="http://www.w3.org/2000/svg"
   viewBox="0 0 841.88977 595.27557"
   id="svg2"
   height="595.27557"
   width="841.88977"
   version="1.1">
  <metadata
     id="metadata64">
    <rdf:RDF>
      <cc:Work
         rdf:about="">
        <dc:format>image/svg+xml</dc:format>
        <dc:type
           rdf:resource="http://purl.org/dc/dcmitype/StillImage" />
      </cc:Work>
    </rdf:RDF>
  </metadata>
  <defs
     id="defs62" />
  <path
     id="path4"
     style="fill:#005da9;fill-rule:evenodd"
     d="m 329.3766,143.3522 c 6.2534,11.8279 9.781,25.3148 9.781,39.6281 0,46.8495 -37.9796,84.829 -84.8281,84.829 -4.4694,0 -8.8541,-0.3459 -13.0291,-1.0116 27.5748,-2.143 49.3715,-25.3419 49.3715,-53.5745 0,-11.8384 -3.7985,-22.7831 -10.2789,-31.6581 16.4004,-14.3072 34.4973,-27.8893 48.9836,-38.2129 z" />
  <path
     id="path6"
     style="fill:#005da9;fill-rule:evenodd"
     d="m 475.9537,240.3577 2.7633,-7.6433 -0.021,-50.6784 -10.4616,0 0,50.343 -2.8444,7.9813 10.5637,-0.003 z" />
  <path
     id="path8"
     style="fill:#005da9;fill-rule:evenodd"
     d="m 517.8034,240.3691 0,-58.3331 -9.9618,0 0,58.3331 9.9618,0 z" />
  <path
     id="path10"
     style="fill:#005da9;fill-rule:evenodd"
     d="m 498.479,240.3691 0,-58.0955 -10.1758,0 0,58.0955 10.1758,0 z" />
  <path
     id="path12"
     style="fill:#005da9;fill-rule:evenodd"
     d="m 456.0178,200.9725 -9.8955,0 1.8809,10.2422 10.2091,-0.0227 -2.1945,-10.2195 z" />
  <path
     id="path14"
     style="fill:#005da9;fill-rule:evenodd"
     d="m 447.8617,215.8135 9.8326,0 -2.3509,16.7699 -2.7266,7.7953 -10.3768,0 2.8585,-8.0626 2.7632,-16.5026 z" />
  <path
     id="path16"
     style="fill:#005da9;fill-rule:evenodd"
     d="m 454.9581,182.0569 -10.1479,0 2.1001,13.977 10.2484,-0.0271 -2.2006,-13.9499 z" />
  <path
     id="path18"
     style="fill:#005da9;fill-rule:evenodd"
     d="m 460.9389,197.457 6.3354,0 -1.0658,21.7033 -6.7565,0 1.4869,-21.7033 z" />
  <path
     id="path20"
     style="fill:#005da9;fill-rule:evenodd"
     d="m 481.0792,197.457 6.3355,0 -1.0649,21.7033 -6.7566,0 1.486,-21.7033 z" />
  <path
     id="path22"
     style="fill:#005da9;fill-rule:evenodd"
     d="m 500.6037,197.457 6.3381,0 -1.065,21.7033 -6.7574,0 1.4843,-21.7033 z" />
  <path
     id="path24"
     style="fill:#005da9;fill-rule:evenodd"
     d="m 598.53,231.867 0,-17.5448 -12.9837,0 -56.91,0 0,25.7944 59.1097,0 7.6931,0 c 1.7097,0 3.0909,-1.9097 3.0909,-4.265 l 0,-3.9846 z m -56.91,-7.6328 0,-3.5512 43.9263,0 0,3.5512 -43.9263,0 z m 43.9263,5.1858 0,2.5344 c 0,0.9994 -0.6474,1.4974 -1.9412,1.4974 l -41.9851,0 0,-4.0318 43.9263,0 z" />
  <path
     id="path26"
     style="fill:#005da9;fill-rule:evenodd"
     d="m 599.5442,195.9107 -5.64,7.3131 -12.021,0 5.8419,-7.3131 11.8191,0 z m -72.0489,0 5.6427,7.3131 12.021,0 -5.8445,-7.3131 -11.8192,0 z m 33.2507,-2.9554 5.5196,0 0,12.0297 -5.5196,0 0,-12.0297 z m -34.9874,0 22.3139,0 0,12.0297 -22.624,0 0,7.1234 76.1907,0 0,-7.1234 -22.3891,0 0,-12.0297 22.0789,0 0,-7.5996 -13.8389,0 2.3325,-3.4115 -14.2268,0 -2.3317,3.4115 -19.5157,0 -2.1788,-3.4115 -14.2269,0 2.1762,3.4115 -13.7603,0 0,7.5996 z" />
  <path
     id="path28"
     style="fill:#005da9;fill-rule:evenodd"
     d="m 664.481,214.5948 13.3122,0 2.3474,6.4935 -70.3873,9e-4 0,-5.3089 30.2533,0 0,-2.9765 -27.7495,0 0,-19.7856 27.7495,0 0,-2.6244 -30.2507,0 0,-6.0122 30.2507,0 0,-2.1587 12.9628,0 0,2.1587 32.0381,0 0,6.0122 -32.0381,0 0,2.6244 29.6121,0 0,11.5169 0,2.3168 0,1.7909 c 0,2.2976 -1.348,4.1576 -3.0158,4.1576 l -5.8541,0.003 -20.7422,0 0,2.9765 11.9336,0 -0.422,-1.1855 z m -11.5116,-16.4992 16.9507,0 0,2.3929 -16.9507,0 0,-2.3929 z m -12.9628,2.3929 -15.0873,0 0,-2.3929 15.0873,0 0,2.3929 z m 12.9628,4.6109 16.9507,0 0,1.1672 c 0,0.9723 -0.6325,1.4598 -1.8966,1.4598 l -15.0541,0 0,-2.627 z m -12.9628,2.627 -15.0873,0 0,-2.627 15.0873,0 0,2.627 z" />
  <path
     id="path30"
     style="fill:#005da9;fill-rule:evenodd"
     d="m 622.5081,239.443 c 0.5539,0 1.0169,-0.3975 1.1733,-0.9452 l 4.4764,-15.2184 -14.3238,0 -5.7939,16.1724 14.468,-0.009 z" />
  <path
     id="path32"
     style="fill:#005da9;fill-rule:evenodd"
     d="m 674.2113,239.443 c -0.5503,0 -1.0169,-0.3975 -1.1706,-0.9452 l -5.447,-15.2184 13.3296,0 5.7939,16.1724 -12.5059,-0.009 z" />
  <path
     id="path34"
     style="fill:#005da9;fill-rule:evenodd"
     d="m 646.8776,223.2654 0.003,6.7784 20.4208,-0.0184 -2.4077,-6.7722 -18.0157,0.0122 z" />
  <path
     id="path36"
     style="fill:#005da9;fill-rule:evenodd"
     d="m 638.3328,239.4159 32.336,-0.0183 -2.3116,-6.4421 -23.2128,-0.0183 c -1.265,0 -1.8966,-0.4857 -1.8966,-1.4581 l 0,-8.1718 -12.9479,0 -0.0114,11.9625 c 0,2.2967 1.3515,4.1575 3.0123,4.1575 l 5.032,-0.0114 z" />
  <path
     id="path38"
     style="fill:#005da9;fill-rule:evenodd"
     d="m 414.0117,231.5001 c -0.0751,0 -0.021,5.6759 -0.021,5.6759 0,1.8992 1.5376,3.4403 3.4368,3.4403 l 5.1046,-0.021 11.509,0 2.9013,-8.0792 -6.5941,0 c -1.4205,0 -2.1281,-0.4979 -2.1281,-1.4956 l 0,-42.0742 -30.1599,0 2.3029,-6.2848 -15.0367,0 -2.1762,6.2848 -25.1068,0 0,8.0792 22.1514,0 -11.9668,33.3974 c -0.5897,1.348 -1.4231,2.1255 -3.1511,2.0932 l -7.0335,0 0,8.0792 14.3867,0 c 5.122,0 8.2609,-2.5911 9.6272,-6.7626 l 13.1314,-36.8072 18.8019,0 c 0,0 -0.0541,34.4746 0.021,34.4746 z" />
  <path
     id="path40"
     style="fill:#005da9;fill-rule:evenodd"
     d="m 370.019,290.5033 -11.9729,0 0,-39.8736 20.3614,0 c 5.6339,0 10.4825,0.4211 14.5483,1.258 4.078,0.8308 7.2536,2.1037 9.4901,3.8526 2.2565,1.7604 3.4185,3.9697 3.4185,6.6107 0,2.3893 -1.3358,4.5734 -3.8282,6.553 -2.4802,1.9866 -5.9686,3.5504 -10.4284,4.7166 -4.4729,1.1619 -9.5897,1.7385 -15.3468,1.7385 l -3.8404,0.0131 1.5052,-4.5882 2.4313,-0.0646 c 5.4295,-0.1521 9.5801,-0.9514 12.491,-2.3579 2.8855,-1.3952 4.2466,-3.3757 4.2466,-5.9564 0,-1.3287 -0.5154,-2.4863 -1.5743,-3.4883 -1.0413,-1.0003 -2.7483,-1.8311 -5.1831,-2.4453 -2.4191,-0.608 -5.5073,-0.9181 -9.2787,-0.9181 l -7.0396,0 0,34.9499 z" />
  <path
     id="path42"
     style="fill:#005da9;fill-rule:evenodd"
     d="m 425.325,287.7828 c -6.0498,-1.8101 -10.7385,-4.2921 -14.0285,-7.4685 -3.2918,-3.1809 -4.9683,-6.7662 -4.9683,-10.742 0,-3.691 1.8023,-7.0361 5.2942,-10.03 3.4874,-2.9974 8.2888,-5.3308 14.3709,-7.0239 6.0883,-1.7018 12.8509,-2.5509 20.2819,-2.5509 5.6497,0 10.9019,0.4918 15.7592,1.4746 4.8783,0.9767 9.1101,2.3448 12.7041,4.1087 3.6054,1.7568 6.4194,3.8369 8.4243,6.2524 2.025,2.4217 3.0577,5.0137 3.0603,7.7691 0,3.9758 -1.6791,7.5611 -4.9718,10.742 -3.2865,3.1764 -7.9761,5.6584 -14.025,7.4685 -6.0559,1.8136 -13.044,2.7135 -20.9511,2.7143 -7.9062,0 -14.8951,-0.9007 -20.9502,-2.7143 z m 33.3774,-3.5757 c 3.4971,-0.9645 6.2901,-2.2373 8.4094,-3.8055 2.1308,-1.5891 3.6474,-3.3118 4.5778,-5.163 0.9601,-1.8827 1.4327,-3.7697 1.4327,-5.6663 0,-2.3867 -0.9181,-4.7053 -2.8025,-6.9697 -1.8626,-2.2505 -4.8032,-4.1209 -8.8786,-5.5868 -4.0326,-1.4642 -9.083,-2.2059 -15.166,-2.2059 -6.0856,0 -11.1447,0.7417 -15.1957,2.2059 -4.0535,1.4659 -6.988,3.3346 -8.8514,5.5868 -1.8836,2.2627 -2.7991,4.583 -2.7991,6.9697 0,1.9054 0.4726,3.7906 1.4301,5.6628 0.9479,1.8468 2.468,3.5652 4.5839,5.1543 2.115,1.5769 4.8992,2.8532 8.378,3.8177 3.4769,0.9619 7.6266,1.4467 12.4542,1.4467 4.825,0 8.966,-0.4848 12.4272,-1.4467 z" />
  <path
     id="path44"
     style="fill:#005da9;fill-rule:evenodd"
     d="m 499.3518,290.5033 -11.9729,0 0,-39.8736 20.3605,0 c 5.6339,0 10.4834,0.4211 14.5492,1.258 4.078,0.8308 7.2562,2.1037 9.4892,3.8526 2.26,1.7604 3.4193,3.9697 3.4193,6.6107 0,2.3893 -1.3366,4.5734 -3.8255,6.553 -2.4828,1.9866 -5.9712,3.5504 -10.4284,4.7166 -4.4755,1.1619 -9.5923,1.7385 -15.3494,1.7385 l -4.2135,0 1.4895,-4.5768 2.8201,-0.0629 c 5.433,-0.1521 9.58,-0.9514 12.4936,-2.3579 2.8855,-1.3952 4.2431,-3.3757 4.2431,-5.9564 0,-1.3287 -0.5119,-2.4863 -1.5742,-3.4883 -1.0414,-1.002 -2.7476,-1.8311 -5.1823,-2.4453 -2.42,-0.608 -5.5082,-0.9181 -9.2787,-0.9181 l -7.0396,0 0,34.9499 z" />
  <path
     id="path46"
     style="fill:#005da9;fill-rule:evenodd"
     d="m 546.5891,250.6297 0,23.6514 c 0,2.6112 0.5111,4.7481 1.5017,6.4359 0.9776,1.6677 2.5099,2.938 4.632,3.8064 2.1421,0.8622 4.8905,1.306 8.267,1.306 4.9901,0 8.5239,-1.064 10.721,-3.0838 2.2417,-2.0644 3.3556,-4.5682 3.3582,-7.5446 l 0,-24.5713 8.6444,0 0,24.6761 c 0,2.9703 -0.9094,5.6253 -2.7327,7.9447 -1.8241,2.3125 -4.4668,4.0946 -7.8887,5.3614 -3.4281,1.2606 -7.4642,1.8852 -12.1022,1.887 -8.0172,0 -13.9884,-1.3183 -17.8052,-4.0448 -3.8317,-2.7476 -5.73,-6.7618 -5.73,-11.9607 l 0,-23.8637 9.1345,0 z" />
  <path
     id="path48"
     style="fill:#005da9;fill-rule:evenodd"
     d="m 588.258,250.6297 11.9729,0 0,34.9516 16.7935,0 -3.795,4.922 -24.9714,0 0,-39.8736 z" />
  <path
     id="path50"
     style="fill:#005da9;fill-rule:evenodd"
     d="m 658.4618,250.6297 28.7096,39.8736 -13.9228,0 -7.8826,-11.4322 -29.2207,0 -8.9904,11.4322 -11.9275,0 31.686,-39.8736 11.5484,0 z m 3.5032,23.5177 c -4.7315,-6.7661 -7.0125,-10.2449 -10.2388,-14.8576 -1.583,2.0155 -7.1243,9.0839 -11.696,14.8576 l 21.9348,0 z" />
  <path
     id="path52"
     style="fill:#f49100;fill-rule:evenodd"
     d="m 236.8973,266.3478 c -6.7355,-1.6302 -12.7582,-6.9103 -15.4726,-14.0181 -1.168,-3.0541 -1.6974,-6.1738 -2.032,-8.8873 -0.3337,-2.6933 -0.4185,-5.053 -0.4726,-6.698 -0.8876,-26.0005 24.2044,-56.3369 48.8325,-79.8354 23.9904,-22.8931 48.6036,-40.1479 50.1893,-41.2521 l 39.9662,-0.003 -4.8093,3.0708 c -0.097,0.062 -85.0658,54.3765 -114.0794,96.2882 -10.0169,14.4732 -16.4782,40.4982 -2.1221,51.3346 z" />
  <path
     id="path54"
     style="fill:#005da9;fill-rule:evenodd"
     d="m 226.49,265.8708 c -12.6168,-2.5099 -23.6261,-9.4447 -31.3882,-19.1147 -6.7959,-8.0146 -11.903,-18.5731 -13.6459,-32.8087 -2.6217,-21.3704 10.5192,-47.481 22.8521,-66.9871 8.4304,-13.3305 17.7248,-25.1707 22.6817,-31.2676 l -29.5615,0 -73.458,174.6952 92.1665,0 10.3533,-24.5171 z" />
  <path
     id="path56"
     style="fill:#f49100;fill-rule:evenodd"
     d="m 228.75,263.8484 c -20.4994,-6.0376 -25.071,-31.6363 -24.0078,-44.2338 2.5369,-30.0245 20.6977,-53.1194 38.4067,-73.6048 15.1293,-17.5055 29.1788,-29.191 30.4971,-30.339 l 33.1363,-0.004 -1.6555,1.244 c -1.1287,0.7915 -6.3503,4.8503 -12.788,9.7557 -22.3078,18.456 -64.8861,55.589 -74.8567,94.5951 -1.8966,7.4109 -4.5114,33.6779 11.2679,42.5871 z" />
  <path
     id="path58"
     style="fill:#f49100;fill-rule:evenodd"
     d="m 264.605,115.6569 c -0.9636,0.8849 -2.143,1.9778 -3.2569,3.0297 -5.6007,5.2941 -12.9592,12.6657 -20.6462,21.5591 -17.6819,20.4557 -36.8543,44.5858 -39.5328,76.2815 -0.9025,10.6931 1.6258,30 15.2533,41.9248 -13.8328,-7.8826 -26.2085,-20.3937 -29.0617,-43.6878 -2.3955,-19.5218 9.7696,-44.3124 22.1601,-63.9058 12.0332,-19.03 25.0501,-34.1619 25.956,-35.2077 l 29.1282,0.006 z" />
</svg>
