<?xml version="1.0" encoding="UTF-8"?>
<svg version="1.1" xmlns="http://www.w3.org/2000/svg" width="107" height="170" viewBox="0 0 107 170">
  <path d="M0 0 C1.07765625 0.00902344 2.1553125 0.01804687 3.265625 0.02734375 C4.08546875 0.03894531 4.9053125 0.05054688 5.75 0.0625 C5.75146656 0.67172995 5.75293312 1.28095989 5.75444412 1.90865135 C5.79157637 16.76675112 5.85067575 31.62464326 5.93390274 46.48254967 C5.97362785 53.66789474 6.00605331 60.85313133 6.02099609 68.03857422 C6.03404667 74.30506102 6.06109744 80.57130847 6.10461307 86.83766043 C6.12715219 90.15242661 6.14082628 93.46683617 6.14188385 96.78168869 C6.14425755 100.49202842 6.17137266 104.2014417 6.20410156 107.91162109 C6.1990712 108.99775696 6.19404083 110.08389282 6.18885803 111.20294189 C6.30042754 119.41014518 7.90386713 126.32186823 12.9375 132.9375 C19.73358937 138.07232308 26.23379093 140.18883733 34.75 139.0625 C41.87673551 137.44278738 45.63840074 133.87796568 50 128.0625 C53.34956859 122.32038242 52.90064406 116.42589675 52.90771484 109.95141602 C52.91279556 108.93619873 52.91787628 107.92098145 52.92311096 106.875 C52.93379748 104.67389852 52.94242437 102.47278629 52.94923019 100.27166939 C52.96103628 96.78725156 52.98049258 93.30295671 53.00234985 89.81858826 C53.06391663 79.91287319 53.11804396 70.00717196 53.15136719 60.10131836 C53.17230719 54.03948749 53.2076017 47.97788308 53.25212479 41.91618156 C53.26628608 39.60735678 53.27500751 37.29849196 53.27817917 34.98962593 C53.28308566 31.76050208 53.30623654 28.53198013 53.33349609 25.30297852 C53.32898689 23.87437752 53.32898689 23.87437752 53.3243866 22.41691589 C53.4003508 16.35984847 54.35466753 12.20380743 58.1171875 7.26953125 C64.56004631 1.31072142 73.19620341 -0.04068866 81.75 0.0625 C81.79678668 15.5703751 81.83202148 31.0782449 81.85362434 46.58617401 C81.86392296 53.7872911 81.87795615 60.98836425 81.90087891 68.18945312 C81.9208562 74.4682482 81.93372672 80.74701144 81.93817699 87.02583742 C81.94077705 90.34831985 81.94791868 93.67069037 81.96146011 96.9931488 C81.97599878 100.70837785 81.97797691 104.42341891 81.97705078 108.13867188 C81.98424133 109.23199829 81.99143188 110.32532471 81.99884033 111.45178223 C81.96161903 125.27029168 77.6443815 139.05261988 67.75 149.0625 C61.71250969 154.18521905 55.25375766 157.60778238 47.75 160.0625 C46.74710937 160.41957031 45.74421875 160.77664062 44.7109375 161.14453125 C32.48604451 164.5552484 15.08964853 163.96932657 3.75 158.0625 C2.86570312 157.60359375 1.98140625 157.1446875 1.0703125 156.671875 C-1.46440133 155.24280786 -3.85755007 153.7172084 -6.25 152.0625 C-6.88679688 151.62292969 -7.52359375 151.18335938 -8.1796875 150.73046875 C-16.40795151 144.38556295 -21.9739359 134.11301053 -23.80825806 123.97801208 C-24.3484636 119.18973839 -24.42135897 114.47905644 -24.44287109 109.66430664 C-24.45104858 108.64225632 -24.45922607 107.62020599 -24.46765137 106.56718445 C-24.49236103 103.20234751 -24.50897997 99.8375522 -24.5234375 96.47265625 C-24.52876118 95.31960936 -24.53408485 94.16656246 -24.53956985 92.97857475 C-24.56623247 86.88098695 -24.58563349 80.78341919 -24.60009766 74.68579102 C-24.61345809 69.64687027 -24.64136016 64.60835243 -24.68212891 59.56958008 C-24.73144529 53.47307523 -24.75621649 47.37693681 -24.76332474 41.28024101 C-24.77003286 38.96183706 -24.78524336 36.64344116 -24.80921555 34.32515144 C-24.84087422 31.07969666 -24.84090283 27.83565688 -24.83349609 24.59008789 C-24.84990143 23.63866913 -24.86630676 22.68725037 -24.88320923 21.70700073 C-24.82347957 15.29651149 -23.38275306 11.02251644 -19.25 6.0625 C-16.93359375 4.22265625 -16.93359375 4.22265625 -14.6875 3.125 C-13.94371094 2.74472656 -13.19992187 2.36445313 -12.43359375 1.97265625 C-8.20386003 0.20963665 -4.58568599 -0.04984441 0 0 Z" fill="#FF0303" transform="translate(24.25,8.9375)"/>
</svg>