<?xml version="1.0" encoding="UTF-8"?>
<svg version="1.1" xmlns="http://www.w3.org/2000/svg" width="697" height="170">
<path d="M0 0 C230.01 0 460.02 0 697 0 C697 84.48 697 168.96 697 256 C466.99 256 236.98 256 0 256 C0 171.52 0 87.04 0 0 Z " fill="#FFFDFD" transform="translate(0,0)"/>
<path d="M0 0 C1.07765625 0.00902344 2.1553125 0.01804687 3.265625 0.02734375 C4.08546875 0.03894531 4.9053125 0.05054688 5.75 0.0625 C5.75146656 0.67172995 5.75293312 1.28095989 5.75444412 1.90865135 C5.79157637 16.76675112 5.85067575 31.62464326 5.93390274 46.48254967 C5.97362785 53.66789474 6.00605331 60.85313133 6.02099609 68.03857422 C6.03404667 74.30506102 6.06109744 80.57130847 6.10461307 86.83766043 C6.12715219 90.15242661 6.14082628 93.46683617 6.14188385 96.78168869 C6.14425755 100.49202842 6.17137266 104.2014417 6.20410156 107.91162109 C6.1990712 108.99775696 6.19404083 110.08389282 6.18885803 111.20294189 C6.30042754 119.41014518 7.90386713 126.32186823 12.9375 132.9375 C19.73358937 138.07232308 26.23379093 140.18883733 34.75 139.0625 C41.87673551 137.44278738 45.63840074 133.87796568 50 128.0625 C53.34956859 122.32038242 52.90064406 116.42589675 52.90771484 109.95141602 C52.91279556 108.93619873 52.91787628 107.92098145 52.92311096 106.875 C52.93379748 104.67389852 52.94242437 102.47278629 52.94923019 100.27166939 C52.96103628 96.78725156 52.98049258 93.30295671 53.00234985 89.81858826 C53.06391663 79.91287319 53.11804396 70.00717196 53.15136719 60.10131836 C53.17230719 54.03948749 53.2076017 47.97788308 53.25212479 41.91618156 C53.26628608 39.60735678 53.27500751 37.29849196 53.27817917 34.98962593 C53.28308566 31.76050208 53.30623654 28.53198013 53.33349609 25.30297852 C53.32898689 23.87437752 53.32898689 23.87437752 53.3243866 22.41691589 C53.4003508 16.35984847 54.35466753 12.20380743 58.1171875 7.26953125 C64.56004631 1.31072142 73.19620341 -0.04068866 81.75 0.0625 C81.79678668 15.5703751 81.83202148 31.0782449 81.85362434 46.58617401 C81.86392296 53.7872911 81.87795615 60.98836425 81.90087891 68.18945312 C81.9208562 74.4682482 81.93372672 80.74701144 81.93817699 87.02583742 C81.94077705 90.34831985 81.94791868 93.67069037 81.96146011 96.9931488 C81.97599878 100.70837785 81.97797691 104.42341891 81.97705078 108.13867188 C81.98424133 109.23199829 81.99143188 110.32532471 81.99884033 111.45178223 C81.96161903 125.27029168 77.6443815 139.05261988 67.75 149.0625 C61.71250969 154.18521905 55.25375766 157.60778238 47.75 160.0625 C46.74710937 160.41957031 45.74421875 160.77664062 44.7109375 161.14453125 C32.48604451 164.5552484 15.08964853 163.96932657 3.75 158.0625 C2.86570312 157.60359375 1.98140625 157.1446875 1.0703125 156.671875 C-1.46440133 155.24280786 -3.85755007 153.7172084 -6.25 152.0625 C-6.88679688 151.62292969 -7.52359375 151.18335938 -8.1796875 150.73046875 C-16.40795151 144.38556295 -21.9739359 134.11301053 -23.80825806 123.97801208 C-24.3484636 119.18973839 -24.42135897 114.47905644 -24.44287109 109.66430664 C-24.45104858 108.64225632 -24.45922607 107.62020599 -24.46765137 106.56718445 C-24.49236103 103.20234751 -24.50897997 99.8375522 -24.5234375 96.47265625 C-24.52876118 95.31960936 -24.53408485 94.16656246 -24.53956985 92.97857475 C-24.56623247 86.88098695 -24.58563349 80.78341919 -24.60009766 74.68579102 C-24.61345809 69.64687027 -24.64136016 64.60835243 -24.68212891 59.56958008 C-24.73144529 53.47307523 -24.75621649 47.37693681 -24.76332474 41.28024101 C-24.77003286 38.96183706 -24.78524336 36.64344116 -24.80921555 34.32515144 C-24.84087422 31.07969666 -24.84090283 27.83565688 -24.83349609 24.59008789 C-24.84990143 23.63866913 -24.86630676 22.68725037 -24.88320923 21.70700073 C-24.82347957 15.29651149 -23.38275306 11.02251644 -19.25 6.0625 C-16.93359375 4.22265625 -16.93359375 4.22265625 -14.6875 3.125 C-13.94371094 2.74472656 -13.19992187 2.36445313 -12.43359375 1.97265625 C-8.20386003 0.20963665 -4.58568599 -0.04984441 0 0 Z " fill="#FF0303" transform="translate(24.25,8.9375)"/>
<path d="M0 0 C9.17964053 -0.23447358 19.89780947 0.64540847 27 7 C34.86036208 14.86036208 35.81449808 28.56587895 38.125 39.0625 C38.52024627 40.8408514 38.91600795 42.61908831 39.31225586 44.3972168 C40.13484373 48.09053542 40.95522121 51.78433431 41.77392578 55.47851562 C44.59635941 68.2033197 47.4710924 80.91651336 50.34046936 93.63079834 C51.47002309 98.6386252 52.59186795 103.64811501 53.70881653 108.6587677 C54.43991045 111.93307191 55.17613288 115.20620874 55.9135437 118.47909546 C56.25979353 120.02109604 56.60384854 121.56359128 56.94558716 123.1065979 C57.41499732 125.2247505 57.89210354 127.34102779 58.37109375 129.45703125 C58.63849365 130.65303955 58.90589355 131.84904785 59.18139648 133.08129883 C59.88203268 136.15822986 59.88203268 136.15822986 62 139 C64.00785061 138.38473786 64.00785061 138.38473786 66 137 C67.07386298 134.54229121 67.07386298 134.54229121 67.640625 131.54296875 C67.90238525 130.38627686 68.16414551 129.22958496 68.43383789 128.0378418 C68.70317139 126.767229 68.97250488 125.49661621 69.25 124.1875 C69.54601424 122.85100074 69.84349164 121.51482482 70.14233398 120.17895508 C70.94824265 116.55336359 71.73201385 112.92334604 72.50921631 109.29150391 C73.00424072 106.98019977 73.50276753 104.66967817 74.00244141 102.359375 C75.36788506 96.0456148 76.73243146 89.73168489 78.08447266 83.41503906 C80.19473892 73.57690074 82.4344952 63.78178778 84.84741211 54.01269531 C86.18881017 48.53718997 87.42435993 43.05291963 88.5625 37.53125 C88.82401855 36.26676025 89.08553711 35.00227051 89.35498047 33.69946289 C89.85365093 31.26318734 90.34287691 28.82495168 90.82080078 26.38452148 C92.65201713 17.43602965 94.66112444 9.64998566 102.52734375 4.25390625 C109.75643098 0.58797102 117.98454324 -0.47149746 126 0 C125.47262868 7.23954889 124.20930802 14.07870773 122.5 21.125 C121.95571712 23.42547073 121.41284443 25.72627538 120.87109375 28.02734375 C120.57315918 29.2891748 120.27522461 30.55100586 119.96826172 31.85107422 C118.30955614 38.92396877 116.73094806 46.01526495 115.14178467 53.10403442 C114.55976804 55.69968387 113.97659071 58.29506997 113.39306641 60.89038086 C111.77972798 68.06700037 110.16844844 75.24407079 108.563797 82.42263794 C106.73088216 90.62006631 104.87918598 98.81304182 103 107 C102.85304688 107.64062378 102.70609375 108.28124756 102.5546875 108.94128418 C101.51042546 113.48545573 100.44654682 118.02468377 99.375 122.5625 C98.97740479 124.28279419 98.97740479 124.28279419 98.57177734 126.0378418 C92.82596218 150.08416611 92.82596218 150.08416611 86 156 C75.58100269 162.30109718 65.33523998 164.49278963 53.3125 162.3125 C45.54450423 160.31501537 39.34519818 155.7015097 35 149 C30.36117406 139.08199655 28.04126077 128.62762235 25.6875 118 C25.30040979 116.28679136 24.91261951 114.57374077 24.52416992 112.86083984 C21.52491385 99.58076832 18.66232289 86.27057802 15.8137207 72.95751953 C13.73210705 63.24979819 11.51296589 53.5859707 9.15869141 43.94018555 C7.25480986 36.12352665 5.44653332 28.28802016 3.6875 20.4375 C3.43274902 19.31263184 3.17799805 18.18776367 2.91552734 17.02880859 C1.65407795 11.35787559 0.59552606 5.78010589 0 0 Z " fill="#FF0202" transform="translate(283,9)"/>
<path d="M0 0 C1.72718262 0.00531738 1.72718262 0.00531738 3.48925781 0.01074219 C12.02900737 0.1776192 18.7480035 1.17765765 26.25 5.5 C26.88421875 5.84546875 27.5184375 6.1909375 28.171875 6.546875 C39.64537947 13.47641731 46.20664951 26.09638255 49.3828125 38.6875 C50.50376725 43.98478964 50.47257874 49.1693979 50.375 54.5625 C50.36597656 55.52349609 50.35695313 56.48449219 50.34765625 57.47460938 C50.32435208 59.81667805 50.29164058 62.15819792 50.25 64.5 C38.51396442 66.77149076 26.72620521 68.40481247 14.87304688 69.93945312 C5.20508208 71.20428461 -4.41799421 72.66434852 -14.03320312 74.28100586 C-15.47469727 74.52089233 -15.47469727 74.52089233 -16.9453125 74.765625 C-18.19852295 74.97880371 -18.19852295 74.97880371 -19.47705078 75.19628906 C-21.75 75.5 -21.75 75.5 -25.75 75.5 C-22.99491161 88.20520607 -22.99491161 88.20520607 -16.75 99.5 C-16.42 100.49 -16.09 101.48 -15.75 102.5 C-13.96022669 103.59635036 -13.96022669 103.59635036 -11.75 104.5 C-10.97527344 104.92539063 -10.20054687 105.35078125 -9.40234375 105.7890625 C2.01933922 111.40951657 15.78278163 111.32424116 27.8046875 107.3671875 C28.61164063 107.08101563 29.41859375 106.79484375 30.25 106.5 C32.14369756 105.93035114 34.03949463 105.36762692 35.9375 104.8125 C37.37543262 104.37642401 38.81310534 103.93948405 40.25 103.5 C41.28479213 105.91151557 42.3029372 108.32794469 43.3125 110.75 C43.60705078 111.43191406 43.90160156 112.11382812 44.20507812 112.81640625 C46.68763469 118.83295511 46.68763469 118.83295511 45.25 122.5 C33.86521746 129.77850649 17.7610727 129.89377659 4.75 130 C3.59419434 130.01828857 2.43838867 130.03657715 1.24755859 130.05541992 C-13.37048947 129.95161941 -26.11040202 124.3906321 -36.87109375 114.54296875 C-40.49078418 110.60721387 -43.14658274 106.1489594 -45.75 101.5 C-46.35328125 100.45585937 -46.35328125 100.45585937 -46.96875 99.390625 C-55.91329426 81.90810667 -55.50797969 54.92287337 -49.75 36.5 C-44.44574266 22.14009733 -35.70595548 10.42288844 -21.75 3.5 C-14.58046249 0.33545092 -7.76877968 -0.04274741 0 0 Z " fill="#FF0202" transform="translate(458.75,41.5)"/>
<path d="M0 0 C0.928125 0.24363281 1.85625 0.48726562 2.8125 0.73828125 C10.85146739 3.38862831 17.87168552 8.95477777 22.32492065 16.13677979 C27.49783514 26.60420185 26.63114749 37.41494517 26.48828125 48.828125 C26.47894086 51.0305704 26.47183055 53.23302628 26.46684265 55.43548584 C26.44786954 61.1961602 26.39885285 66.9561913 26.34332275 72.71661377 C26.29192032 78.60916445 26.26928396 84.50182037 26.24414062 90.39453125 C26.19072424 101.92996812 26.10552995 113.4649303 26 125 C23.76174503 125.01694649 21.52345289 125.02902979 19.28515625 125.0390625 C18.03871338 125.04631348 16.79227051 125.05356445 15.50805664 125.06103516 C6.22352966 124.8994977 6.22352966 124.8994977 2.4453125 121.671875 C-2.22436202 116.4481713 -2.14657406 111.75351956 -2.1418457 105.05371094 C-2.14532013 104.25643082 -2.14879456 103.4591507 -2.15237427 102.63771057 C-2.15971718 100.9085942 -2.16507036 99.17946849 -2.16866493 97.45034027 C-2.17584789 94.70894288 -2.19152874 91.96772267 -2.21000671 89.22637939 C-2.26238596 81.43268276 -2.31042943 73.63908367 -2.32592773 65.84521484 C-2.33603498 61.07472532 -2.36542857 56.30468293 -2.40724754 51.53437042 C-2.41952309 49.72122842 -2.42468512 47.90802318 -2.42244911 46.094841 C-2.42008394 43.55070139 -2.44235334 41.00783419 -2.4699707 38.46386719 C-2.46336929 37.72280228 -2.45676788 36.98173737 -2.44996643 36.21821594 C-2.5459497 30.80155765 -3.94134533 26.5064576 -7 22 C-12.77102749 17.33406288 -17.75737044 15.71923745 -25.125 15.75 C-26.95417969 15.74226563 -26.95417969 15.74226563 -28.8203125 15.734375 C-33.92595684 16.05884586 -38.9665764 17.08483207 -44 18 C-44 53.31 -44 88.62 -44 125 C-53.57 125 -63.14 125 -73 125 C-73 85.73 -73 46.46 -73 6 C-57.58543834 0.07132244 -57.58543834 0.07132244 -52 -1 C-51.15308594 -1.18433594 -50.30617187 -1.36867187 -49.43359375 -1.55859375 C-33.25941388 -4.61629399 -15.9070322 -4.21609997 0 0 Z " fill="#FF0303" transform="translate(196,44)"/>
<path d="M0 0 C2.2525296 1.9732904 3.83352527 3.77567853 5.48828125 6.2578125 C5.96523438 6.95261719 6.4421875 7.64742187 6.93359375 8.36328125 C10.68231825 15.461276 11.80200072 22.03752083 11.70385742 29.99633789 C11.70451454 31.41745377 11.70451454 31.41745377 11.70518494 32.86727905 C11.70311155 35.96772594 11.67984931 39.06761749 11.65625 42.16796875 C11.65064889 44.32986658 11.64638122 46.49176825 11.64338684 48.65367126 C11.6319787 54.32049223 11.6025463 59.98707944 11.5692749 65.65380859 C11.53848693 71.44560586 11.52486289 77.23744121 11.50976562 83.02929688 C11.47767266 94.37640431 11.42652528 105.7233389 11.36328125 117.0703125 C9.47660117 117.08904872 7.58986609 117.10228775 5.703125 117.11328125 C4.6524585 117.12125732 3.60179199 117.1292334 2.51928711 117.13745117 C-3.58616932 117.00756794 -8.72557831 116.54348325 -13.63671875 112.7578125 C-17.47920747 107.59446828 -17.92606045 103.11948831 -17.89208984 96.81103516 C-17.8957103 95.99249557 -17.89933075 95.17395599 -17.90306091 94.33061218 C-17.90993849 92.55840797 -17.91246343 90.78618265 -17.91111374 89.01396561 C-17.9101463 86.20548501 -17.92311661 83.39738483 -17.94009399 80.58895874 C-17.98629988 72.60588518 -18.01096885 64.62285117 -18.01757812 56.63964844 C-18.02260044 51.75133169 -18.0468859 46.86341297 -18.08290482 41.97523117 C-18.09268507 40.11659513 -18.09504446 38.25790422 -18.08973312 36.39925003 C-18.08264057 33.79519534 -18.09998884 31.19232205 -18.12255859 28.58837891 C-18.11438614 27.82658829 -18.10621368 27.06479767 -18.09779358 26.27992249 C-18.18191916 20.80307453 -19.55296079 17.60931591 -22.63671875 13.0703125 C-29.04868165 7.31598682 -37.17366195 7.46308678 -45.29296875 7.69921875 C-50.12151539 8.11172948 -54.88469208 9.11990717 -59.63671875 10.0703125 C-59.63671875 45.3803125 -59.63671875 80.6903125 -59.63671875 117.0703125 C-68.87671875 117.0703125 -78.11671875 117.0703125 -87.63671875 117.0703125 C-87.63671875 77.8003125 -87.63671875 38.5303125 -87.63671875 -1.9296875 C-80.69833292 -5.01341454 -74.89142658 -7.2795588 -67.63671875 -8.9296875 C-66.73050781 -9.13722656 -65.82429687 -9.34476563 -64.890625 -9.55859375 C-43.65251052 -13.59186118 -17.9799756 -13.15867844 0 0 Z " fill="#FF0202" transform="translate(614.63671875,51.9296875)"/>
<path d="M0 0 C0 11.22 0 22.44 0 34 C6.93 34 13.86 34 21 34 C21 75.25 21 116.5 21 159 C15.70428912 161.11828435 12.24191835 161.33411252 6.6875 161.3125 C5.87087891 161.32861328 5.05425781 161.34472656 4.21289062 161.36132812 C-4.7628189 161.36848008 -12.10616102 158.51903731 -18.78515625 152.3515625 C-28.90061246 141.8280518 -28.556639 129.67552397 -28.390625 115.98828125 C-28.38315078 114.16554896 -28.37746344 112.34280856 -28.37347412 110.52006531 C-28.35831068 105.7573469 -28.31911069 100.99512805 -28.2746582 96.23260498 C-28.23350337 91.35891474 -28.21542022 86.4851426 -28.1953125 81.61132812 C-28.15260602 72.07400106 -28.08446937 62.53704232 -28 53 C-32.62 53 -37.24 53 -42 53 C-42 46.73 -42 40.46 -42 34 C-37.38 34 -32.76 34 -28 34 C-28.04640625 32.865625 -28.0928125 31.73125 -28.140625 30.5625 C-28.61602524 14.25789857 -28.61602524 14.25789857 -24 9 C-17.86991333 3.01284281 -8.48867946 0 0 0 Z " fill="#FF0404" transform="translate(676,9)"/>
<path d="M0 0 C9.24 0 18.48 0 28 0 C28.1129362 15.0208621 28.20501243 30.0415063 28.25906086 45.06269264 C28.28482534 52.03755535 28.31994158 59.01213524 28.37719727 65.98681641 C28.43242047 72.7171251 28.46141783 79.44707921 28.47438622 86.17762375 C28.48362862 88.74609376 28.50167677 91.3145476 28.52865028 93.88289261 C28.56491834 97.47908603 28.56994598 101.07406344 28.56762695 104.67041016 C28.58560333 105.73352417 28.60357971 106.79663818 28.62210083 107.89196777 C28.56581517 115.95232126 28.56581517 115.95232126 25.58732605 119.63046265 C18.10329348 126.48452525 10.21526167 125 0 125 C0 83.75 0 42.5 0 0 Z " fill="#FF0000" transform="translate(241,44)"/>
<path d="M0 0 C6.6 0 13.2 0 20 0 C20 29.04 20 58.08 20 88 C16.05749412 89.97125294 11.29780285 89.44717024 7 89 C2.81384346 86.69334231 1.40248254 84.47541211 0 80 C-0.17677708 77.3257448 -0.25336167 74.7600628 -0.22705078 72.08862305 C-0.22734283 71.30760727 -0.22763489 70.52659149 -0.22793579 69.72190857 C-0.22654736 67.15173055 -0.21100921 64.58184586 -0.1953125 62.01171875 C-0.19158064 60.22524677 -0.18873448 58.43877274 -0.18673706 56.65229797 C-0.17911424 51.9587129 -0.15947736 47.26525232 -0.1373291 42.57171631 C-0.11684155 37.77894779 -0.10772912 32.98615909 -0.09765625 28.19335938 C-0.07623018 18.79550952 -0.04105905 9.39778461 0 0 Z " fill="#FFFEFE" transform="translate(677,62)"/>
<path d="M0 0 C7.55129297 4.61026308 10.52687147 10.60036448 12.8828125 18.9921875 C13.9053999 24.17564775 13.90342004 29.18164937 13.5625 34.4375 C10.66682239 34.87605053 7.77099096 35.3135261 4.875 35.75 C3.98756104 35.88390137 3.10012207 36.01780273 2.18579102 36.15576172 C-2.65189524 36.88202906 -7.49132456 37.59089903 -12.3359375 38.26953125 C-13.28380127 38.40254639 -14.23166504 38.53556152 -15.20825195 38.67260742 C-17.0449886 38.92912412 -18.88205964 39.18325958 -20.71948242 39.43481445 C-21.55584229 39.55171631 -22.39220215 39.66861816 -23.25390625 39.7890625 C-23.99068604 39.89041504 -24.72746582 39.99176758 -25.48657227 40.09619141 C-27.64350759 40.42394104 -27.64350759 40.42394104 -30.4375 41.4375 C-31.83189664 41.50415376 -33.22919875 41.52288199 -34.625 41.5 C-35.883125 41.479375 -37.14125 41.45875 -38.4375 41.4375 C-38.96523306 29.31918529 -37.90749773 17.46150724 -30.4375 7.4375 C-22.35410251 -1.12139146 -11.44456209 -5.14784356 0 0 Z " fill="#FFFBFB" transform="translate(469.4375,60.5625)"/>
<path d="M0 0 C4.23301121 2.82200747 7.17159664 5.95228992 8.8125 10.875 C9.20930449 16.13265945 8.70748146 19.43602842 5.8125 23.875 C1.822471 27.9195376 -1.78141754 29.99984358 -7.5 30.1875 C-12.11152889 30.13501105 -14.63600983 28.91913444 -18.1875 25.875 C-22.10106701 21.42163064 -22.59852789 17.20988816 -22.53125 11.44921875 C-21.97766264 7.30360431 -20.1812197 4.71863877 -17.1875 1.875 C-11.60833041 -1.96842794 -6.2538689 -2.20724785 0 0 Z " fill="#FF0404" transform="translate(262.1875,1.125)"/>
</svg>
